<svg xmlns="http://www.w3.org/2000/svg" viewBox="0 0 880 500" font-family="Segoe UI,system-ui,sans-serif"><defs>
<linearGradient id="bg" x1="0%" y1="0%" x2="100%" y2="100%"><stop offset="0%" stop-color="#0F172A"/><stop offset="100%" stop-color="#1E293B"/></linearGradient>
<linearGradient id="gb" x1="0%" y1="0%" x2="100%" y2="100%"><stop offset="0%" stop-color="#3B82F6"/><stop offset="100%" stop-color="#1D4ED8"/></linearGradient>
<linearGradient id="gg" x1="0%" y1="0%" x2="100%" y2="100%"><stop offset="0%" stop-color="#10B981"/><stop offset="100%" stop-color="#047857"/></linearGradient>
<linearGradient id="ga" x1="0%" y1="0%" x2="100%" y2="100%"><stop offset="0%" stop-color="#F59E0B"/><stop offset="100%" stop-color="#B45309"/></linearGradient>
<linearGradient id="gp" x1="0%" y1="0%" x2="100%" y2="100%"><stop offset="0%" stop-color="#EC4899"/><stop offset="100%" stop-color="#9D174D"/></linearGradient>
<linearGradient id="gv" x1="0%" y1="0%" x2="100%" y2="100%"><stop offset="0%" stop-color="#8B5CF6"/><stop offset="100%" stop-color="#5B21B6"/></linearGradient>
<linearGradient id="gt" x1="0%" y1="0%" x2="100%" y2="100%"><stop offset="0%" stop-color="#06B6D4"/><stop offset="100%" stop-color="#0E7490"/></linearGradient>
<linearGradient id="go" x1="0%" y1="0%" x2="100%" y2="100%"><stop offset="0%" stop-color="#F97316"/><stop offset="100%" stop-color="#C2410C"/></linearGradient>
<filter id="sh"><feDropShadow dx="0" dy="4" stdDeviation="8" flood-color="#00000050"/></filter>
<marker id="ab" markerWidth="10" markerHeight="7" refX="9" refY="3.5" orient="auto"><polygon points="0 0,10 3.5,0 7" fill="#3B82F6"/></marker>
<marker id="ag" markerWidth="10" markerHeight="7" refX="9" refY="3.5" orient="auto"><polygon points="0 0,10 3.5,0 7" fill="#10B981"/></marker>
<marker id="aa" markerWidth="10" markerHeight="7" refX="9" refY="3.5" orient="auto"><polygon points="0 0,10 3.5,0 7" fill="#F59E0B"/></marker>
<marker id="av" markerWidth="10" markerHeight="7" refX="9" refY="3.5" orient="auto"><polygon points="0 0,10 3.5,0 7" fill="#8B5CF6"/></marker>
<marker id="at" markerWidth="10" markerHeight="7" refX="9" refY="3.5" orient="auto"><polygon points="0 0,10 3.5,0 7" fill="#06B6D4"/></marker>
<marker id="ax" markerWidth="10" markerHeight="7" refX="9" refY="3.5" orient="auto"><polygon points="0 0,10 3.5,0 7" fill="#64748B"/></marker>
<marker id="ap" markerWidth="10" markerHeight="7" refX="9" refY="3.5" orient="auto"><polygon points="0 0,10 3.5,0 7" fill="#EC4899"/></marker>
</defs><rect width="880" height="500" fill="url(#bg)" rx="20"/><g opacity="0.05" stroke="white" stroke-width="1"><line x1="0" y1="100" x2="880" y2="100"/><line x1="0" y1="200" x2="880" y2="200"/><line x1="0" y1="300" x2="880" y2="300"/><line x1="0" y1="400" x2="880" y2="400"/><line x1="175" y1="0" x2="175" y2="500"/><line x1="350" y1="0" x2="350" y2="500"/><line x1="525" y1="0" x2="525" y2="500"/><line x1="700" y1="0" x2="700" y2="500"/></g><text x="440" y="44" text-anchor="middle" font-size="20" font-weight="700" fill="white">DaysToCitizen - System Architecture</text><rect x="220" y="60" width="620" height="400" rx="16" fill="#ffffff06" stroke="#F97316" stroke-width="1.5" stroke-dasharray="10,6"/><rect x="648" y="52" width="200" height="26" rx="6" fill="#F97316" opacity="0.2"/><text x="748" y="69" text-anchor="middle" font-size="12" font-weight="600" fill="#FB923C">AWS EC2 t3.micro - Ubuntu 24</text><rect x="24" y="155" width="160" height="100" rx="14" fill="url(#gb)" filter="url(#sh)"/><text x="104" y="196" text-anchor="middle" font-size="15" font-weight="700" fill="white">Browser</text><text x="104" y="218" text-anchor="middle" font-size="11" fill="#BFDBFE">React / localStorage</text><line x1="184" y1="205" x2="262" y2="205" stroke="#3B82F6" stroke-width="2.5" marker-end="url(#ab)"/><rect x="187" y="188" width="72" height="17" rx="5" fill="#1D4ED8" opacity="0.8"/><text x="223" y="200" text-anchor="middle" font-size="10" font-weight="600" fill="#BFDBFE">HTTPS :443</text><rect x="264" y="150" width="165" height="110" rx="14" fill="url(#gg)" filter="url(#sh)"/><text x="346" y="196" text-anchor="middle" font-size="15" font-weight="700" fill="white">Nginx</text><text x="346" y="218" text-anchor="middle" font-size="11" fill="#A7F3D0">Reverse Proxy / SSL</text><rect x="278" y="308" width="137" height="65" rx="12" fill="url(#gt)" filter="url(#sh)"/><text x="346" y="338" text-anchor="middle" font-size="13" font-weight="700" fill="white">Lets Encrypt</text><text x="346" y="358" text-anchor="middle" font-size="11" fill="#A5F3FC">Auto-renew 90d</text><line x1="346" y1="308" x2="346" y2="260" stroke="#06B6D4" stroke-width="2" stroke-dasharray="5,3" marker-end="url(#at)"/><line x1="429" y1="205" x2="507" y2="205" stroke="#10B981" stroke-width="2.5" marker-end="url(#ag)"/><rect x="432" y="188" width="72" height="17" rx="5" fill="#047857" opacity="0.8"/><text x="468" y="200" text-anchor="middle" font-size="10" font-weight="600" fill="#A7F3D0">proxy :3000</text><rect x="509" y="115" width="195" height="190" rx="14" fill="url(#ga)" filter="url(#sh)"/><text x="606" y="152" text-anchor="middle" font-size="15" font-weight="700" fill="white">Next.js 15</text><text x="606" y="172" text-anchor="middle" font-size="11" fill="#FEF3C7">App Router</text><rect x="525" y="179" width="163" height="24" rx="6" fill="#ffffff25"/><text x="606" y="195" text-anchor="middle" font-size="11" fill="white">Pages + Components</text><rect x="525" y="207" width="163" height="24" rx="6" fill="#ffffff25"/><text x="606" y="223" text-anchor="middle" font-size="11" fill="white">API Routes</text><rect x="525" y="235" width="163" height="24" rx="6" fill="#ffffff25"/><text x="606" y="251" text-anchor="middle" font-size="11" fill="white">Auth + OTP Logic</text><rect x="509" y="117" width="48" height="22" rx="6" fill="#92400E"/><text x="533" y="132" text-anchor="middle" font-size="10" font-weight="700" fill="#FDE68A">PM2</text><line x1="704" y1="205" x2="752" y2="205" stroke="#F59E0B" stroke-width="2.5" marker-end="url(#aa)"/><rect x="754" y="162" width="102" height="90" rx="14" fill="url(#gp)" filter="url(#sh)"/><text x="805" y="202" text-anchor="middle" font-size="13" font-weight="700" fill="white">db.json</text><text x="805" y="220" text-anchor="middle" font-size="10" fill="#FBCFE8">users / stays / otps</text><line x1="606" y1="305" x2="606" y2="352" stroke="#8B5CF6" stroke-width="2.5" marker-end="url(#av)"/><rect x="509" y="354" width="195" height="75" rx="14" fill="url(#gv)" filter="url(#sh)"/><text x="606" y="390" text-anchor="middle" font-size="13" font-weight="700" fill="white">Resend API</text><text x="606" y="410" text-anchor="middle" font-size="11" fill="#DDD6FE">OTP Email Delivery</text><path d="M509,390 Q340,455 104,255" fill="none" stroke="#8B5CF6" stroke-width="2" stroke-dasharray="7,4" marker-end="url(#av)"/><rect x="258" y="448" width="130" height="18" rx="5" fill="#5B21B6" opacity="0.7"/><text x="323" y="461" text-anchor="middle" font-size="10" font-weight="600" fill="#DDD6FE">verification email</text><rect x="24" y="305" width="160" height="75" rx="14" fill="url(#go)" filter="url(#sh)"/><text x="104" y="340" text-anchor="middle" font-size="13" font-weight="700" fill="white">Namecheap DNS</text><text x="104" y="360" text-anchor="middle" font-size="10" fill="#FED7AA">A record 3.146.98.97</text><path d="M184,342 Q225,342 264,225" fill="none" stroke="#64748B" stroke-width="1.5" stroke-dasharray="5,3" marker-end="url(#ax)"/></svg>