<svg xmlns="http://www.w3.org/2000/svg" viewBox="0 0 820 360" font-family="Segoe UI,system-ui,sans-serif"><defs><linearGradient id="bg" x1="0%" y1="0%" x2="100%" y2="100%"><stop offset="0%" stop-color="#0F172A"/><stop offset="100%" stop-color="#1E293B"/></linearGradient><linearGradient id="gb" x1="0%" y1="0%" x2="100%" y2="100%"><stop offset="0%" stop-color="#3B82F6"/><stop offset="100%" stop-color="#1D4ED8"/></linearGradient><linearGradient id="gg" x1="0%" y1="0%" x2="100%" y2="100%"><stop offset="0%" stop-color="#10B981"/><stop offset="100%" stop-color="#047857"/></linearGradient><linearGradient id="ga" x1="0%" y1="0%" x2="100%" y2="100%"><stop offset="0%" stop-color="#F59E0B"/><stop offset="100%" stop-color="#B45309"/></linearGradient><linearGradient id="gp" x1="0%" y1="0%" x2="100%" y2="100%"><stop offset="0%" stop-color="#EC4899"/><stop offset="100%" stop-color="#9D174D"/></linearGradient><linearGradient id="gv" x1="0%" y1="0%" x2="100%" y2="100%"><stop offset="0%" stop-color="#8B5CF6"/><stop offset="100%" stop-color="#5B21B6"/></linearGradient><linearGradient id="gt" x1="0%" y1="0%" x2="100%" y2="100%"><stop offset="0%" stop-color="#06B6D4"/><stop offset="100%" stop-color="#0E7490"/></linearGradient><linearGradient id="go" x1="0%" y1="0%" x2="100%" y2="100%"><stop offset="0%" stop-color="#F97316"/><stop offset="100%" stop-color="#C2410C"/></linearGradient><filter id="sh"><feDropShadow dx="0" dy="4" stdDeviation="8" flood-color="#00000050"/></filter><marker id="ab" markerWidth="10" markerHeight="7" refX="9" refY="3.5" orient="auto"><polygon points="0 0,10 3.5,0 7" fill="#3B82F6"/></marker><marker id="ag" markerWidth="10" markerHeight="7" refX="9" refY="3.5" orient="auto"><polygon points="0 0,10 3.5,0 7" fill="#10B981"/></marker><marker id="aa" markerWidth="10" markerHeight="7" refX="9" refY="3.5" orient="auto"><polygon points="0 0,10 3.5,0 7" fill="#F59E0B"/></marker><marker id="av" markerWidth="10" markerHeight="7" refX="9" refY="3.5" orient="auto"><polygon points="0 0,10 3.5,0 7" fill="#8B5CF6"/></marker><marker id="at" markerWidth="10" markerHeight="7" refX="9" refY="3.5" orient="auto"><polygon points="0 0,10 3.5,0 7" fill="#06B6D4"/></marker><marker id="ax" markerWidth="10" markerHeight="7" refX="9" refY="3.5" orient="auto"><polygon points="0 0,10 3.5,0 7" fill="#64748B"/></marker><marker id="ap" markerWidth="10" markerHeight="7" refX="9" refY="3.5" orient="auto"><polygon points="0 0,10 3.5,0 7" fill="#EC4899"/></marker></defs><rect width="820" height="360" fill="url(#bg)" rx="20"/><g opacity="0.05" stroke="white" stroke-width="1"><line x1="0" y1="90" x2="820" y2="90"/><line x1="0" y1="180" x2="820" y2="180"/><line x1="0" y1="270" x2="820" y2="270"/><line x1="200" y1="0" x2="200" y2="360"/><line x1="400" y1="0" x2="400" y2="360"/><line x1="600" y1="0" x2="600" y2="360"/></g><text x="410" y="38" text-anchor="middle" font-size="18" font-weight="700" fill="white">Request Flow: Internet to Application</text><rect x="30" y="56" width="22" height="22" rx="11" fill="#3B82F6"/><text x="41" y="72" text-anchor="middle" font-size="11" font-weight="700" fill="white">1</text><rect x="222" y="56" width="22" height="22" rx="11" fill="#10B981"/><text x="233" y="72" text-anchor="middle" font-size="11" font-weight="700" fill="white">2</text><rect x="432" y="56" width="22" height="22" rx="11" fill="#F59E0B"/><text x="443" y="72" text-anchor="middle" font-size="11" font-weight="700" fill="white">3</text><rect x="632" y="56" width="22" height="22" rx="11" fill="#EC4899"/><text x="643" y="72" text-anchor="middle" font-size="11" font-weight="700" fill="white">4</text><rect x="24" y="88" width="160" height="120" rx="14" fill="url(#gb)" filter="url(#sh)"/><text x="104" y="138" text-anchor="middle" font-size="14" font-weight="700" fill="white">Internet</text><text x="104" y="158" text-anchor="middle" font-size="11" fill="#BFDBFE">:80 / :443</text><text x="104" y="176" text-anchor="middle" font-size="10" fill="#93C5FD">HTTP or HTTPS</text><line x1="184" y1="148" x2="220" y2="148" stroke="#10B981" stroke-width="2.5" marker-end="url(#ag)"/><rect x="222" y="88" width="175" height="120" rx="14" fill="url(#gg)" filter="url(#sh)"/><text x="309" y="118" text-anchor="middle" font-size="14" font-weight="700" fill="white">Nginx</text><rect x="238" y="124" width="143" height="20" rx="5" fill="#ffffff20"/><text x="309" y="138" text-anchor="middle" font-size="10" fill="white">1  Terminate TLS</text><rect x="238" y="148" width="143" height="20" rx="5" fill="#ffffff20"/><text x="309" y="162" text-anchor="middle" font-size="10" fill="white">2  HTTP to HTTPS redirect</text><rect x="238" y="172" width="143" height="20" rx="5" fill="#ffffff20"/><text x="309" y="186" text-anchor="middle" font-size="10" fill="white">3  Proxy to localhost:3000</text><line x1="397" y1="148" x2="430" y2="148" stroke="#F59E0B" stroke-width="2.5" marker-end="url(#aa)"/><rect x="432" y="88" width="175" height="120" rx="14" fill="url(#ga)" filter="url(#sh)"/><text x="519" y="116" text-anchor="middle" font-size="13" font-weight="700" fill="white">PM2 + Next.js</text><rect x="448" y="123" width="143" height="20" rx="5" fill="#ffffff20"/><text x="519" y="137" text-anchor="middle" font-size="10" fill="white">node server.js :3000</text><rect x="448" y="147" width="143" height="20" rx="5" fill="#ffffff20"/><text x="519" y="161" text-anchor="middle" font-size="10" fill="white">Auto-restart on crash</text><rect x="448" y="171" width="143" height="20" rx="5" fill="#ffffff20"/><text x="519" y="185" text-anchor="middle" font-size="10" fill="white">Starts on server boot</text><line x1="607" y1="148" x2="630" y2="148" stroke="#EC4899" stroke-width="2.5" marker-end="url(#ap)"/><rect x="632" y="88" width="162" height="120" rx="14" fill="url(#gp)" filter="url(#sh)"/><text x="713" y="130" text-anchor="middle" font-size="14" font-weight="700" fill="white">db.json</text><text x="713" y="152" text-anchor="middle" font-size="11" fill="#FBCFE8">Persistent disk</text><text x="713" y="170" text-anchor="middle" font-size="11" fill="#FBCFE8">users / stays / otps</text><rect x="232" y="238" width="155" height="70" rx="12" fill="url(#gt)" filter="url(#sh)"/><text x="309" y="265" text-anchor="middle" font-size="13" font-weight="700" fill="white">Certbot</text><text x="309" y="283" text-anchor="middle" font-size="11" fill="#A5F3FC">Lets Encrypt TLS cert</text><text x="309" y="299" text-anchor="middle" font-size="10" fill="#67E8F9">Systemd auto-renewal</text><line x1="309" y1="238" x2="309" y2="208" stroke="#06B6D4" stroke-width="2" stroke-dasharray="5,3" marker-end="url(#at)"/></svg>