<?xml version="1.0" encoding="UTF-8"?>
<svg version="1.1" xmlns="http://www.w3.org/2000/svg" width="512" height="512">
<path d="M0 0 C3.18974482 2.97239573 6.04079207 6.08158414 8 10 C8 18.58 8 27.16 8 36 C31.76 36 55.52 36 80 36 C80 28.41 80 20.82 80 13 C83.64921761 4.48515892 87.08713539 1.10296683 95 -3 C102.48050789 -5.49350263 114.00075545 -5.41552608 121.3125 -2.25 C126.48524405 0.63499423 130.3100238 3.62004759 133 9 C135.18431725 17.73726898 134 26.99382928 134 36 C157.76 36 181.52 36 206 36 C206 27.42 206 18.84 206 10 C210.17511125 3.73733313 214.01080437 -1.03505291 221.33984375 -3.4921875 C230.87982044 -5.31332842 242.68555033 -5.6103109 251 0 C254.58322837 3.27967679 257.45225304 6.35675913 259 11 C259.08266486 12.91906917 259.10740663 14.84089474 259.09765625 16.76171875 C259.09443359 17.87998047 259.09121094 18.99824219 259.08789062 20.15039062 C259.07951172 21.31763672 259.07113281 22.48488281 259.0625 23.6875 C259.05798828 24.86634766 259.05347656 26.04519531 259.04882812 27.25976562 C259.03703273 30.17322789 259.0205727 33.08658863 259 36 C259.59166962 35.99555878 260.18333923 35.99111755 260.79293823 35.98654175 C266.99051481 35.94205105 273.18804548 35.91202742 279.38574219 35.89013672 C281.69402919 35.88012316 284.00230364 35.86650837 286.31054688 35.84912109 C289.64195872 35.82466773 292.9732018 35.81347011 296.3046875 35.8046875 C297.834991 35.78920364 297.834991 35.78920364 299.39620972 35.77340698 C310.67765019 35.77166847 321.11938422 37.27704912 329.6875 45.125 C336.26102027 52.08962216 339.12152002 60.17636617 339.13142776 69.58626747 C339.1334804 70.24972937 339.13553303 70.91319126 339.13764787 71.59675807 C339.14332208 73.82971151 339.1418601 76.06260335 339.14044189 78.29556274 C339.1430253 79.9088105 339.14603839 81.52205762 339.1494453 83.13530385 C339.15752162 87.57638046 339.15930522 92.01744091 339.16004276 96.45852399 C339.16189224 101.24533348 339.16943909 106.03213457 339.17617798 110.81893921 C339.18976677 121.29011307 339.195787 131.7612831 339.20018864 142.23246431 C339.20295039 148.77013385 339.20718764 155.3078019 339.21169281 161.84547043 C339.22388666 179.9442339 339.23418544 198.04299619 339.2375679 216.14176369 C339.23778747 217.30041119 339.23800703 218.4590587 339.23823325 219.65281674 C339.23845153 220.81424935 339.23866981 221.97568197 339.2388947 223.17230952 C339.23933817 225.52584306 339.23978473 227.87937661 339.24023438 230.23291016 C339.2404558 231.40034604 339.24067723 232.56778192 339.24090537 233.77059464 C339.24485286 252.68465891 339.26230487 271.59868463 339.2855939 290.51273401 C339.30930815 309.92878354 339.3217698 329.34481372 339.32293582 348.76087797 C339.32385259 359.66332623 339.32960531 370.56572429 339.34775543 381.46815872 C339.36315746 390.75265666 339.3682763 400.03708889 339.36001733 409.32159717 C339.35611108 414.05798657 339.35703924 418.79424365 339.37107468 423.53061676 C339.38381504 427.86968271 339.38261486 432.20851692 339.37048396 436.54758255 C339.3685272 438.11425456 339.37160448 439.68094299 339.38032833 441.24759193 C339.44464216 453.58176437 338.58892066 463.59007957 330 473 C320.53198958 482.25761019 310.72533201 482.58391571 298.20549011 482.52139282 C296.49035122 482.52743865 294.77521772 482.53521903 293.0600937 482.54457796 C288.36044705 482.56511998 283.66110585 482.5607791 278.96143425 482.55221677 C273.8876625 482.54727897 268.81396398 482.56531472 263.74021912 482.58029175 C253.80520252 482.60578112 243.87029404 482.6093737 233.93525025 482.60469122 C225.85870533 482.60112394 217.78219323 482.60462616 209.70565224 482.61314011 C207.98085295 482.61492567 207.98085295 482.61492567 206.22120923 482.61674731 C203.88517981 482.61917084 201.54915039 482.62159911 199.21312097 482.62403207 C177.30900255 482.64578152 155.40494572 482.6414589 133.50082383 482.62926237 C113.46965963 482.61892507 93.43868997 482.64143235 73.40756425 482.67945881 C52.83193716 482.71821901 32.2564021 482.73472696 11.68073827 482.72721231 C0.1321528 482.72338861 -11.4162671 482.72835996 -22.96482277 482.75664139 C-32.7967149 482.78047544 -42.62833956 482.78327187 -52.46023539 482.75906105 C-57.47449326 482.74728766 -62.48826197 482.74507202 -67.50248718 482.76906586 C-72.09766909 482.79079855 -76.6919539 482.7845613 -81.28709396 482.75654249 C-82.94449678 482.75125248 -84.60197007 482.7559698 -86.25930367 482.77201422 C-97.43062386 482.87260872 -106.87451652 481.59911534 -115.48930484 473.7246033 C-122.70557529 466.19886601 -125.11859275 458.62989003 -125.13422108 448.29347801 C-125.13657331 447.62916187 -125.13892554 446.96484572 -125.14134905 446.28039879 C-125.14801508 444.05055332 -125.14758155 441.82076644 -125.14717102 439.59091187 C-125.15047113 437.97751357 -125.15419701 436.36411609 -125.1583125 434.75071967 C-125.16832374 430.31383498 -125.17204788 425.87696382 -125.17470181 421.44006944 C-125.17860741 416.65598365 -125.18818552 411.87190855 -125.19691467 407.08782959 C-125.21667096 395.53321842 -125.22674385 383.97860639 -125.23564246 372.42398256 C-125.24002639 366.98218474 -125.2453929 361.5403879 -125.25063133 356.09859085 C-125.26764213 338.00836832 -125.28213654 319.9181464 -125.28938007 301.8279171 C-125.29128995 297.13413874 -125.29321029 292.44036038 -125.29516602 287.74658203 C-125.29564976 286.57997396 -125.2961335 285.41336589 -125.2966319 284.21140607 C-125.30493311 265.3110015 -125.33027226 246.41066021 -125.36274669 227.51028328 C-125.39581787 208.10436764 -125.41382886 188.69848416 -125.41702431 169.29254019 C-125.41918926 158.39732223 -125.42793583 147.50219657 -125.45348549 136.60700607 C-125.47519317 127.32877032 -125.4832425 118.05064928 -125.47351871 108.77239101 C-125.46897435 104.03988111 -125.47086826 99.30760789 -125.49028015 94.57513046 C-125.50791463 90.23846168 -125.50691182 85.90220221 -125.49138286 81.56552906 C-125.48900724 80.00088521 -125.493328 78.436213 -125.50521151 76.87161247 C-125.59921089 63.67265649 -123.77502091 53.79380211 -114.35546875 44.09765625 C-105.37737992 36.10224381 -93.82008646 35.68817285 -82.3046875 35.8046875 C-81.23123077 35.8075174 -80.15777405 35.81034729 -79.05178833 35.81326294 C-75.65940695 35.82436178 -72.26730013 35.84944686 -68.875 35.875 C-66.55989968 35.88504312 -64.24479517 35.89416662 -61.9296875 35.90234375 C-56.28636636 35.92426727 -50.6432028 35.95764068 -45 36 C-45.01571045 35.27409668 -45.0314209 34.54819336 -45.04760742 33.80029297 C-45.11020355 30.49194212 -45.14906912 27.18371619 -45.1875 23.875 C-45.21263672 22.73289062 -45.23777344 21.59078125 -45.26367188 20.4140625 C-45.32395001 13.50216994 -45.1337169 8.64145837 -40.45703125 3.20703125 C-29.98833841 -5.67022135 -11.88315164 -8.04056242 0 0 Z M-28 15 C-28 21.93 -28 28.86 -28 36 C-21.73 36 -15.46 36 -9 36 C-9 29.07 -9 22.14 -9 15 C-18.5 11.0366277 -18.5 11.0366277 -28 15 Z M97 16 C96.45162405 18.21269202 96.45162405 18.21269202 96.609375 20.66796875 C96.61936523 21.47258545 96.62935547 22.27720215 96.63964844 23.10620117 C96.67606445 24.12302979 96.71248047 25.1398584 96.75 26.1875 C96.8325 29.425625 96.915 32.66375 97 36 C103.6 36 110.2 36 117 36 C117.0825 32.761875 117.165 29.52375 117.25 26.1875 C117.30462402 24.66225708 117.30462402 24.66225708 117.36035156 23.10620117 C117.3703418 22.30158447 117.38033203 21.49696777 117.390625 20.66796875 C117.41157227 19.84578857 117.43251953 19.0236084 117.45410156 18.17651367 C117.18066597 15.83956493 117.18066597 15.83956493 115.15527344 14.2331543 C112.31932367 12.61054643 110.25172012 12.6006121 107 12.625 C105.453125 12.61339844 105.453125 12.61339844 103.875 12.6015625 C100.58897348 13.05696291 99.37482485 13.72543576 97 16 Z M223 15 C223 21.93 223 28.86 223 36 C229.27 36 235.54 36 242 36 C242 29.07 242 22.14 242 15 C232.5 11.0366277 232.5 11.0366277 223 15 Z " fill="#E9E7E7" transform="translate(149,17)"/>
<path d="M0 0 C3.18974482 2.97239573 6.04079207 6.08158414 8 10 C8 18.58 8 27.16 8 36 C31.76 36 55.52 36 80 36 C80 28.41 80 20.82 80 13 C83.64921761 4.48515892 87.08713539 1.10296683 95 -3 C102.48050789 -5.49350263 114.00075545 -5.41552608 121.3125 -2.25 C126.48524405 0.63499423 130.3100238 3.62004759 133 9 C135.18431725 17.73726898 134 26.99382928 134 36 C157.76 36 181.52 36 206 36 C206 27.42 206 18.84 206 10 C210.17511125 3.73733313 214.01080437 -1.03505291 221.33984375 -3.4921875 C230.87982044 -5.31332842 242.68555033 -5.6103109 251 0 C254.58322837 3.27967679 257.45225304 6.35675913 259 11 C259.08266486 12.91906917 259.10740663 14.84089474 259.09765625 16.76171875 C259.09443359 17.87998047 259.09121094 18.99824219 259.08789062 20.15039062 C259.07951172 21.31763672 259.07113281 22.48488281 259.0625 23.6875 C259.05798828 24.86634766 259.05347656 26.04519531 259.04882812 27.25976562 C259.03703273 30.17322789 259.0205727 33.08658863 259 36 C259.59166962 35.99555878 260.18333923 35.99111755 260.79293823 35.98654175 C266.99051481 35.94205105 273.18804548 35.91202742 279.38574219 35.89013672 C281.69402919 35.88012316 284.00230364 35.86650837 286.31054688 35.84912109 C289.64195872 35.82466773 292.9732018 35.81347011 296.3046875 35.8046875 C297.834991 35.78920364 297.834991 35.78920364 299.39620972 35.77340698 C310.67765019 35.77166847 321.11938422 37.27704912 329.6875 45.125 C350.94415255 67.64635041 339 118.32009923 339 137 C185.88 137 32.76 137 -125 137 C-125 55.05475122 -125 55.05475122 -114.35546875 44.09765625 C-105.37737992 36.10224381 -93.82008646 35.68817285 -82.3046875 35.8046875 C-81.23123077 35.8075174 -80.15777405 35.81034729 -79.05178833 35.81326294 C-75.65940695 35.82436178 -72.26730013 35.84944686 -68.875 35.875 C-66.55989968 35.88504312 -64.24479517 35.89416662 -61.9296875 35.90234375 C-56.28636636 35.92426727 -50.6432028 35.95764068 -45 36 C-45.01571045 35.27409668 -45.0314209 34.54819336 -45.04760742 33.80029297 C-45.11020355 30.49194212 -45.14906912 27.18371619 -45.1875 23.875 C-45.21263672 22.73289062 -45.23777344 21.59078125 -45.26367188 20.4140625 C-45.32395001 13.50216994 -45.1337169 8.64145837 -40.45703125 3.20703125 C-29.98833841 -5.67022135 -11.88315164 -8.04056242 0 0 Z M-28 15 C-28 21.93 -28 28.86 -28 36 C-21.73 36 -15.46 36 -9 36 C-9 29.07 -9 22.14 -9 15 C-18.5 11.0366277 -18.5 11.0366277 -28 15 Z M97 16 C96.45162405 18.21269202 96.45162405 18.21269202 96.609375 20.66796875 C96.61936523 21.47258545 96.62935547 22.27720215 96.63964844 23.10620117 C96.67606445 24.12302979 96.71248047 25.1398584 96.75 26.1875 C96.8325 29.425625 96.915 32.66375 97 36 C103.6 36 110.2 36 117 36 C117.0825 32.761875 117.165 29.52375 117.25 26.1875 C117.30462402 24.66225708 117.30462402 24.66225708 117.36035156 23.10620117 C117.3703418 22.30158447 117.38033203 21.49696777 117.390625 20.66796875 C117.41157227 19.84578857 117.43251953 19.0236084 117.45410156 18.17651367 C117.18066597 15.83956493 117.18066597 15.83956493 115.15527344 14.2331543 C112.31932367 12.61054643 110.25172012 12.6006121 107 12.625 C105.453125 12.61339844 105.453125 12.61339844 103.875 12.6015625 C100.58897348 13.05696291 99.37482485 13.72543576 97 16 Z M223 15 C223 21.93 223 28.86 223 36 C229.27 36 235.54 36 242 36 C242 29.07 242 22.14 242 15 C232.5 11.0366277 232.5 11.0366277 223 15 Z " fill="#D22F2F" transform="translate(149,17)"/>
<path d="M0 0 C0.33 0 0.66 0 1 0 C1.0697676 9.34527298 1.12294634 18.69045515 1.15543652 28.03593254 C1.17103675 32.37626271 1.1921708 36.7164136 1.22631836 41.05664062 C1.25911455 45.25175849 1.27689536 49.44670481 1.28463173 53.64194107 C1.29013912 55.23578717 1.30089293 56.82962477 1.31719017 58.42339706 C1.440123 70.95333217 0.80701602 81.35113686 -8 91 C-17.46801042 100.25761019 -27.27466799 100.58391571 -39.79450989 100.52139282 C-41.50964878 100.52743865 -43.22478228 100.53521903 -44.9399063 100.54457796 C-49.63955295 100.56511998 -54.33889415 100.5607791 -59.03856575 100.55221677 C-64.1123375 100.54727897 -69.18603602 100.56531472 -74.25978088 100.58029175 C-84.19479748 100.60578112 -94.12970596 100.6093737 -104.06474975 100.60469122 C-112.14129467 100.60112394 -120.21780677 100.60462616 -128.29434776 100.61314011 C-130.01914705 100.61492567 -130.01914705 100.61492567 -131.77879077 100.61674731 C-134.11482019 100.61917084 -136.45084961 100.62159911 -138.78687903 100.62403207 C-160.69099745 100.64578152 -182.59505428 100.6414589 -204.49917617 100.62926237 C-224.53034037 100.61892507 -244.56131003 100.64143235 -264.59243575 100.67945881 C-285.16806284 100.71821901 -305.7435979 100.73472696 -326.31926173 100.72721231 C-337.8678472 100.72338861 -349.4162671 100.72835996 -360.96482277 100.75664139 C-370.7967149 100.78047544 -380.62833956 100.78327187 -390.46023539 100.75906105 C-395.47449326 100.74728766 -400.48826197 100.74507202 -405.50248718 100.76906586 C-410.09766909 100.79079855 -414.6919539 100.7845613 -419.28709396 100.75654249 C-420.94449678 100.75125248 -422.60197007 100.7559698 -424.25930367 100.77201422 C-435.43062386 100.87260872 -444.87451652 99.59911534 -453.48930484 91.7246033 C-460.51427266 84.39837258 -463.14742223 76.92671226 -463.09765625 66.82421875 C-463.09443359 65.66728516 -463.09121094 64.51035156 -463.08789062 63.31835938 C-463.07951172 62.12017578 -463.07113281 60.92199219 -463.0625 59.6875 C-463.05798828 58.46998047 -463.05347656 57.25246094 -463.04882812 55.99804688 C-463.03706578 52.99864774 -463.02062826 49.99934911 -463 47 C-462.67 47 -462.34 47 -462 47 C-461.85304688 47.68964844 -461.70609375 48.37929688 -461.5546875 49.08984375 C-459.1566477 59.13680359 -455.38962198 66.00904626 -446.63671875 71.7109375 C-437.89814203 75.98313056 -429.98636882 76.4300909 -420.33578491 76.38095093 C-418.85219944 76.38441147 -417.36861654 76.38917869 -415.88503897 76.39513266 C-411.82565183 76.40761766 -407.76647718 76.40148376 -403.70708942 76.39217401 C-399.32260027 76.3853737 -394.93814712 76.39586953 -390.55366516 76.40411377 C-381.97189294 76.41744215 -373.39019951 76.41457754 -364.80842422 76.40587585 C-357.83405425 76.39909708 -350.85970634 76.39818342 -343.88533401 76.4014473 C-342.8922198 76.401907 -341.89910558 76.40236669 -340.875897 76.40284032 C-338.85834792 76.40379951 -336.84079884 76.40477215 -334.82324977 76.4057581 C-315.91274268 76.41430914 -297.00227924 76.40448187 -278.09177931 76.388357 C-261.86617738 76.37494994 -245.64063983 76.37728566 -229.41503906 76.39111328 C-210.56848771 76.407167 -191.72197459 76.41348955 -172.87541735 76.40427649 C-170.86595639 76.40332085 -168.85649543 76.40237774 -166.84703445 76.4014473 C-165.85835874 76.40098447 -164.86968303 76.40052164 -163.85104745 76.40004479 C-156.88414208 76.39745459 -149.91726096 76.40182647 -142.95035934 76.40888596 C-134.46152058 76.41729864 -125.97276504 76.4150255 -117.48393582 76.39904372 C-113.1529396 76.39115855 -108.82208216 76.38807368 -104.49108696 76.39799118 C-100.52614309 76.40693321 -96.56146659 76.40201344 -92.59654696 76.38605852 C-91.16265246 76.38270868 -89.72873535 76.38440939 -88.2948554 76.39168589 C-76.99270218 76.48746655 -76.99270218 76.48746655 -67.09788799 71.60125256 C-66.61285714 71.11772981 -66.12782629 70.63420706 -65.62809753 70.1360321 C-65.05761688 69.57683075 -64.48713623 69.01762939 -63.89936829 68.44148254 C-63.30117783 67.83519516 -62.70298737 67.22890778 -62.08666992 66.60424805 C-61.43537109 65.9599585 -60.78407227 65.31566895 -60.11303711 64.65185547 C-57.97538099 62.53172151 -55.85259365 60.39739001 -53.73046875 58.26171875 C-52.24369214 56.77763836 -50.75632232 55.29415203 -49.26838684 53.81123352 C-46.15781074 50.70654441 -43.05455885 47.59476154 -39.95629883 44.4777832 C-35.98746629 40.48614245 -32.00091922 36.51275515 -28.00872326 32.54449749 C-24.93627172 29.4865081 -21.87342098 26.41904545 -18.81337929 23.34864235 C-17.3471148 21.8797128 -15.87788211 20.41373982 -14.40563011 18.95081139 C-12.34936258 16.90471771 -10.30637863 14.84621083 -8.26635742 12.78393555 C-7.65804581 12.18372086 -7.04973419 11.58350616 -6.42298889 10.96510315 C-3.04753406 7.52121909 -1.13974397 4.82612349 0 0 Z " fill="#D1C9C9" transform="translate(487,399)"/>
<path d="M0 0 C152.46 0 304.92 0 462 0 C462 3.96 462 7.92 462 12 C309.54 12 157.08 12 0 12 C0 8.04 0 4.08 0 0 Z " fill="#D1C9C9" transform="translate(25,154)"/>
<path d="M0 0 C1.30119781 0.00007553 2.60239563 0.00015106 3.94302368 0.00022888 C5.36875445 0.00533592 6.79448484 0.01055192 8.22021484 0.01586914 C9.67467195 0.01773392 11.12912969 0.01915754 12.58358765 0.02015686 C16.4140801 0.02397734 20.24453472 0.03380363 24.07501221 0.04486084 C27.98278288 0.05508504 31.89055966 0.05965665 35.79833984 0.06469727 C43.46762794 0.07542631 51.13688484 0.09249711 58.80615234 0.11352539 C58.55679029 6.31853559 55.64690776 8.98687312 51.45385742 13.11279297 C50.79035278 13.7850592 50.12684814 14.45732544 49.4432373 15.14996338 C47.24978667 17.36539359 45.03858122 19.56206347 42.82568359 21.75805664 C41.29375683 23.29335189 39.76257292 24.82938868 38.23210144 26.36613464 C35.02291224 29.58269332 31.8048585 32.79003974 28.58032227 35.99121094 C24.44837953 40.09466734 20.33928901 44.22016121 16.23657703 48.35281849 C13.07917358 51.52829199 9.90995459 54.69175688 6.73703575 57.85172081 C5.21711838 59.36830344 3.70090466 60.88860727 2.1884861 62.41266823 C0.07266311 64.54119353 -2.05853555 66.65302485 -4.19458008 68.76123047 C-5.12766747 69.70949959 -5.12766747 69.70949959 -6.0796051 70.67692566 C-9.64435998 74.1561142 -11.98832854 75.9043301 -17.19384766 76.11352539 C-17.28667812 67.74225936 -17.35767816 59.3712097 -17.40109634 50.99955559 C-17.42193886 47.11190436 -17.45019446 43.22460624 -17.49560547 39.3371582 C-17.53918385 35.58294345 -17.56300985 31.82906754 -17.57335663 28.07461929 C-17.58072664 26.64490553 -17.59511879 25.21520956 -17.61676788 23.78564072 C-17.64595526 21.77777058 -17.64748286 19.76955682 -17.64794922 17.76147461 C-17.65683167 16.62008026 -17.66571411 15.47868591 -17.67486572 14.30270386 C-16.9082987 9.22031879 -14.35669261 6.13793642 -10.56884766 2.80102539 C-6.75223335 0.08922049 -4.67712159 -0.00902919 0 0 Z " fill="#BCB3B3" transform="translate(428.19384765625,398.886474609375)"/>
<path d="M0 0 C1.53642151 -0.00717545 1.53642151 -0.00717545 3.10388184 -0.01449585 C5.26572204 -0.01789264 7.42761375 -0.00870578 9.58935547 0.01220703 C12.8953726 0.03897443 16.19799453 0.01245033 19.50390625 -0.01953125 C21.60677832 -0.01622711 23.70964827 -0.00982081 25.8125 0 C27.29236389 -0.01518173 27.29236389 -0.01518173 28.80212402 -0.03067017 C33.21092192 0.04449399 35.73979512 0.24652012 39.53344727 2.62329102 C42.1256595 6.83212994 42.07527387 10.12692426 41.96484375 14.98046875 C41.96134666 16.32068336 41.96134666 16.32068336 41.95777893 17.68797302 C41.94805917 19.57162054 41.92631282 21.45523958 41.89331055 23.33862305 C41.84385696 26.22032987 41.83182545 29.10032875 41.82617188 31.98242188 C41.81208658 33.81512231 41.79588242 35.64780795 41.77734375 37.48046875 C41.77198105 38.34096329 41.76661835 39.20145782 41.76109314 40.08802795 C41.74510574 40.8924382 41.72911835 41.69684845 41.71264648 42.52563477 C41.69668678 43.58223045 41.69668678 43.58223045 41.68040466 44.66017151 C41.3533449 47.05076416 40.68545756 48.62062829 39.40625 50.6640625 C36.25093047 52.76760885 35.44301085 52.92319465 31.83056641 52.97045898 C30.90595612 52.98644638 29.98134583 53.00243378 29.02871704 53.01890564 C27.53336929 53.02694969 27.53336929 53.02694969 26.0078125 53.03515625 C24.9807016 53.04418472 23.9535907 53.0532132 22.89535522 53.06251526 C20.72160766 53.07702809 18.54781631 53.08590705 16.37402344 53.08959961 C13.05068216 53.10149296 9.72919913 53.15066738 6.40625 53.20117188 C4.2942799 53.21063635 2.18229839 53.21787127 0.0703125 53.22265625 C-1.41896255 53.25195473 -1.41896255 53.25195473 -2.93832397 53.28184509 C-7.36361577 53.25295338 -9.90200042 53.09375788 -13.71875 50.72290039 C-16.32478096 46.47147306 -16.3143763 43.06648375 -16.2578125 38.1640625 C-16.26259613 37.25076172 -16.26737976 36.33746094 -16.27230835 35.39648438 C-16.27570317 33.47003451 -16.26652994 31.54352671 -16.24560547 29.6171875 C-16.21883281 26.67316902 -16.24536622 23.7329628 -16.27734375 20.7890625 C-16.27403958 18.91405411 -16.26763318 17.03904808 -16.2578125 15.1640625 C-16.26793365 14.28685547 -16.27805481 13.40964844 -16.28848267 12.50585938 C-16.21012317 8.40733253 -15.8996083 6.16079418 -13.71435547 2.61181641 C-9.17251529 -0.2230139 -5.25899315 -0.05395133 0 0 Z " fill="#484868" transform="translate(104.59375,284.3359375)"/>
<path d="M0 0 C1.02665268 -0.00241196 2.05330536 -0.00482391 3.11106873 -0.00730896 C5.27712881 -0.00633117 7.44321409 0.00704614 9.60913086 0.03198242 C12.92582936 0.06632585 16.23986847 0.05262821 19.55664062 0.03320312 C21.66277176 0.04010066 23.76889603 0.0497722 25.875 0.0625 C26.86673721 0.05754013 27.85847443 0.05258026 28.88026428 0.04747009 C35.74129758 0.16499257 35.74129758 0.16499257 38.96459961 2.53930664 C41.80978858 6.76634576 41.53258477 10.47364554 41.5390625 15.43359375 C41.5440551 16.74688156 41.5440551 16.74688156 41.54914856 18.08670044 C41.55421645 19.94109572 41.55655693 21.79550014 41.55639648 23.64990234 C41.55857958 26.48550495 41.57672728 29.32071645 41.59570312 32.15625 C41.59863775 33.95702992 41.60062208 35.75781169 41.6015625 37.55859375 C41.60874802 38.40662567 41.61593353 39.25465759 41.62333679 40.12838745 C41.62026016 40.92246002 41.61718353 41.71653259 41.61401367 42.53466797 C41.61543869 43.23034882 41.61686371 43.92602966 41.61833191 44.64279175 C41.32002715 47.03913468 40.65277844 48.58542417 39.37109375 50.62890625 C36.21577422 52.7324526 35.4078546 52.8880384 31.79541016 52.93530273 C30.87079987 52.95129013 29.94618958 52.96727753 28.99356079 52.98374939 C27.49821304 52.99179344 27.49821304 52.99179344 25.97265625 53 C24.94554535 53.00902847 23.91843445 53.01805695 22.86019897 53.02735901 C20.68645141 53.04187184 18.51266006 53.0507508 16.33886719 53.05444336 C13.01552591 53.06633671 9.69404288 53.11551113 6.37109375 53.16601562 C4.25912365 53.1754801 2.14714214 53.18271502 0.03515625 53.1875 C-1.4541188 53.21679848 -1.4541188 53.21679848 -2.97348022 53.24668884 C-7.39877202 53.21779713 -9.93715667 53.05860163 -13.75390625 50.68774414 C-16.35993721 46.43631681 -16.34953255 43.0313275 -16.29296875 38.12890625 C-16.29775238 37.21560547 -16.30253601 36.30230469 -16.3074646 35.36132812 C-16.31085942 33.43487826 -16.30168619 31.50837046 -16.28076172 29.58203125 C-16.25398906 26.63801277 -16.28052247 23.69780655 -16.3125 20.75390625 C-16.30919583 18.87889786 -16.30278943 17.00389183 -16.29296875 15.12890625 C-16.3030899 14.25169922 -16.31321106 13.37449219 -16.32363892 12.47070312 C-16.24529627 8.37305758 -15.93339672 6.12435172 -13.75170898 2.57446289 C-9.1967344 -0.26335999 -5.27009246 -0.07059823 0 0 Z " fill="#484868" transform="translate(289.62890625,284.37109375)"/>
<path d="M0 0 C1.50312744 -0.00361794 1.50312744 -0.00361794 3.03662109 -0.00730896 C5.15140752 -0.00633119 7.26621975 0.00704563 9.38085938 0.03198242 C12.61416752 0.06629131 15.84474199 0.05263688 19.078125 0.03320312 C21.13542828 0.04010179 23.19272451 0.04977435 25.25 0.0625 C26.69705322 0.0550602 26.69705322 0.0550602 28.17333984 0.04747009 C32.50410652 0.12329998 34.96305337 0.2191173 38.7109375 2.53930664 C42.33336961 6.49394905 41.80251187 10.28203201 41.828125 15.3984375 C41.83382507 16.27159103 41.83952515 17.14474457 41.84539795 18.0443573 C41.85485345 19.89454942 41.86138411 21.74475843 41.86523438 23.5949707 C41.87492565 26.41973469 41.90593755 29.24376669 41.9375 32.06835938 C41.94403152 33.8658811 41.94928141 35.66340802 41.953125 37.4609375 C41.9654718 38.30380814 41.9778186 39.14667877 41.99053955 40.01509094 C41.97280892 44.70606278 41.6914195 47.82667672 38.625 51.62890625 C36.26723837 52.80778706 34.79310577 52.78029448 32.1628418 52.82177734 C31.23815598 52.83784027 30.31347015 52.8539032 29.36076355 52.87045288 C25.12992053 52.91488669 20.89923465 52.95596693 16.66821289 52.97900391 C14.43633601 52.9955664 12.20451223 53.02286006 9.97290039 53.06103516 C6.75639302 53.11578219 3.5411292 53.13767496 0.32421875 53.15234375 C-0.67176834 53.17501312 -1.66775543 53.1976825 -2.69392395 53.22103882 C-7.13051234 53.20750294 -9.67354648 53.06383043 -13.50219727 50.68994141 C-16.10432455 46.43684899 -16.09562257 43.03100389 -16.0390625 38.12890625 C-16.04384613 37.21560547 -16.04862976 36.30230469 -16.05355835 35.36132812 C-16.05695317 33.43487826 -16.04777994 31.50837046 -16.02685547 29.58203125 C-16.00008281 26.63801277 -16.02661622 23.69780655 -16.05859375 20.75390625 C-16.05528958 18.87889786 -16.04888318 17.00389183 -16.0390625 15.12890625 C-16.04918365 14.25169922 -16.05930481 13.37449219 -16.06973267 12.47070312 C-15.99118566 8.36236848 -15.68352714 6.12671165 -13.48193359 2.57446289 C-8.99626914 -0.23445272 -5.19706668 -0.07142494 0 0 Z " fill="#484868" transform="translate(289.375,196.37109375)"/>
<path d="M0 0 C1.00445663 0.00233139 2.00891327 0.00466278 3.04380798 0.00706482 C5.16283689 0.01679047 7.28184024 0.03855022 9.40063477 0.0715332 C12.64443435 0.1209732 15.88671688 0.13301706 19.13085938 0.13867188 C21.19142239 0.15275728 23.25197224 0.16896146 25.3125 0.1875 C26.28236343 0.1928627 27.25222687 0.1982254 28.2514801 0.20375061 C29.15599411 0.21973801 30.06050812 0.2357254 30.99243164 0.25219727 C31.78565323 0.26283707 32.57887482 0.27347687 33.39613342 0.28443909 C35.92401432 0.60035606 37.47133215 1.13963268 39.58984375 2.55859375 C41.36801525 5.25878662 41.84302653 7.40477682 41.86450195 10.60522461 C41.87879997 11.78180885 41.87879997 11.78180885 41.89338684 12.98216248 C41.89247543 13.82078323 41.89156403 14.65940399 41.890625 15.5234375 C41.89491013 16.39376114 41.89919525 17.26408478 41.90361023 18.16078186 C41.90934576 19.99902477 41.90985951 21.83729038 41.90551758 23.67553711 C41.90235887 26.4826544 41.92582162 29.28871616 41.95117188 32.09570312 C41.95344513 33.88411326 41.95414824 35.67252622 41.953125 37.4609375 C41.96233475 38.29753403 41.97154449 39.13413055 41.98103333 39.99607849 C41.94410252 44.66545163 41.63330296 47.77131181 38.58984375 51.55859375 C36.23208212 52.73747456 34.75794952 52.70998198 32.12768555 52.75146484 C31.20299973 52.76752777 30.2783139 52.7835907 29.3256073 52.80014038 C25.09476428 52.84457419 20.8640784 52.88565443 16.63305664 52.90869141 C14.40117976 52.9252539 12.16935598 52.95254756 9.93774414 52.99072266 C6.72123677 53.04546969 3.50597295 53.06736246 0.2890625 53.08203125 C-0.70692459 53.10470062 -1.70291168 53.12737 -2.7290802 53.15072632 C-7.16566859 53.13719044 -9.70870273 52.99351793 -13.53735352 50.61962891 C-16.1394808 46.36653649 -16.13077882 42.96069139 -16.07421875 38.05859375 C-16.07900238 37.14529297 -16.08378601 36.23199219 -16.0887146 35.29101562 C-16.09210942 33.36456576 -16.08293619 31.43805796 -16.06201172 29.51171875 C-16.03523906 26.56770027 -16.06177247 23.62749405 -16.09375 20.68359375 C-16.09044583 18.80858536 -16.08403943 16.93357933 -16.07421875 15.05859375 C-16.0843399 14.18138672 -16.09446106 13.30417969 -16.10488892 12.40039062 C-16.0263474 8.29234327 -15.71650276 6.05416708 -13.51928711 2.49975586 C-9.01654986 -0.31149376 -5.20948585 -0.10513455 0 0 Z " fill="#484868" transform="translate(104.41015625,196.44140625)"/>
<path d="M0 0 C1.02665268 -0.00241196 2.05330536 -0.00482391 3.11106873 -0.00730896 C5.27712881 -0.00633117 7.44321409 0.00704614 9.60913086 0.03198242 C12.92582936 0.06632585 16.23986847 0.05262821 19.55664062 0.03320312 C21.66277176 0.04010066 23.76889603 0.0497722 25.875 0.0625 C26.86673721 0.05754013 27.85847443 0.05258026 28.88026428 0.04747009 C35.74129758 0.16499257 35.74129758 0.16499257 38.96459961 2.53930664 C41.79599682 6.74585563 41.56639567 10.4590375 41.609375 15.3984375 C41.61744675 16.27159103 41.62551849 17.14474457 41.63383484 18.0443573 C41.64767739 19.89454155 41.65839878 21.74475137 41.66625977 23.5949707 C41.68346295 26.41992822 41.72734541 29.24371246 41.77148438 32.06835938 C41.78161222 33.86587681 41.79012804 35.6634042 41.796875 37.4609375 C41.81438309 38.30380814 41.83189117 39.14667877 41.84992981 40.01509094 C41.8349294 44.08619111 41.69474324 46.11652701 39.46948242 49.6394043 C36.5288692 52.42742723 34.94248599 52.75822596 31.00073242 52.82177734 C29.64373482 52.84587173 29.64373482 52.84587173 28.25932312 52.87045288 C24.12007375 52.91489486 19.98098488 52.95596728 15.84155273 52.97900391 C13.65817609 52.99556555 11.47485371 53.02285813 9.29174805 53.06103516 C6.14473325 53.11579069 2.99898945 53.13767614 -0.1484375 53.15234375 C-1.12255081 53.17501312 -2.09666412 53.1976825 -3.10029602 53.22103882 C-7.48742417 53.20736069 -9.95898599 53.04610273 -13.74243164 50.68994141 C-16.36300979 46.43773372 -16.34961613 43.03857106 -16.29296875 38.12890625 C-16.29775238 37.21560547 -16.30253601 36.30230469 -16.3074646 35.36132812 C-16.31085942 33.43487826 -16.30168619 31.50837046 -16.28076172 29.58203125 C-16.25398906 26.63801277 -16.28052247 23.69780655 -16.3125 20.75390625 C-16.30919583 18.87889786 -16.30278943 17.00389183 -16.29296875 15.12890625 C-16.3030899 14.25169922 -16.31321106 13.37449219 -16.32363892 12.47070312 C-16.24529627 8.37305758 -15.93339672 6.12435172 -13.75170898 2.57446289 C-9.1967344 -0.26335999 -5.27009246 -0.07059823 0 0 Z " fill="#484868" transform="translate(289.62890625,372.37109375)"/>
<path d="M0 0 C1.02428101 -0.00099701 2.04856201 -0.00199402 3.10388184 -0.00302124 C5.26578547 0.00165206 7.42770076 0.02106178 9.58935547 0.05419922 C12.89519723 0.10140467 16.19781288 0.09531664 19.50390625 0.08203125 C21.60679003 0.09318527 23.70966025 0.10740535 25.8125 0.125 C26.79907593 0.12317719 27.78565186 0.12135437 28.80212402 0.11947632 C32.87652064 0.20349777 35.79633367 0.44584448 39.52685547 2.1628418 C42.38915563 6.06736427 42.12324878 9.61823437 42.0703125 14.34765625 C42.07509613 15.28456802 42.07987976 16.2214798 42.08480835 17.18678284 C42.08820752 19.16628703 42.07900383 21.14584735 42.05810547 23.12524414 C42.03136959 26.15053013 42.05783658 29.17209592 42.08984375 32.19726562 C42.08653907 34.12240401 42.08013162 36.04754007 42.0703125 37.97265625 C42.08043365 38.87487411 42.09055481 39.77709198 42.10098267 40.70664978 C42.02346849 44.87530285 41.7368256 47.19041099 39.51318359 50.796875 C35.02573414 53.58398803 31.21983779 53.42677717 26.03125 53.35546875 C25.02916504 53.35788071 24.02708008 53.36029266 22.99462891 53.36277771 C20.87984248 53.36179994 18.76503025 53.34842312 16.65039062 53.32348633 C13.41708248 53.28917744 10.18650801 53.30283187 6.953125 53.32226562 C4.89582172 53.31536696 2.83852549 53.3056944 0.78125 53.29296875 C-0.66580322 53.30040855 -0.66580322 53.30040855 -2.14208984 53.30799866 C-6.47285652 53.23216877 -8.93180337 53.13635145 -12.6796875 50.81616211 C-17.5605207 45.48771168 -15.89959248 36.69770841 -15.94384766 29.81542969 C-15.9603875 27.92988729 -15.98765159 26.04440709 -16.02587891 24.15917969 C-16.08079051 21.43651907 -16.10254426 18.71532813 -16.1171875 15.9921875 C-16.13985687 15.15447815 -16.16252625 14.3167688 -16.18588257 13.45367432 C-16.17082936 9.26037144 -15.72538734 6.97523371 -13.72314453 3.19287109 C-9.21971271 -0.35633067 -5.58711811 -0.10431219 0 0 Z " fill="#494969" transform="translate(196.59375,372.2734375)"/>
<path d="M0 0 C1.53642151 -0.00717545 1.53642151 -0.00717545 3.10388184 -0.01449585 C5.26572204 -0.01789264 7.42761375 -0.00870578 9.58935547 0.01220703 C12.8953726 0.03897443 16.19799453 0.01245033 19.50390625 -0.01953125 C21.60677832 -0.01622711 23.70964827 -0.00982081 25.8125 0 C27.29236389 -0.01518173 27.29236389 -0.01518173 28.80212402 -0.03067017 C33.21106849 0.04449649 35.73780942 0.24421639 39.52905273 2.62548828 C42.11772311 6.81570697 42.11016766 10.10606503 42.03515625 14.9453125 C42.03756821 15.83641724 42.03998016 16.72752197 42.04246521 17.64562988 C42.04148803 19.52502911 42.02812511 21.40445757 42.00317383 23.28369141 C41.96885867 26.1549693 41.98252211 29.02316888 42.00195312 31.89453125 C41.99505438 33.72397139 41.98538173 35.55340361 41.97265625 37.3828125 C41.97761612 38.23814575 41.98257599 39.093479 41.98768616 39.97473145 C41.90734722 44.05518321 41.72711241 46.15724341 39.49584961 49.68164062 C36.55220611 52.47430159 34.96720849 52.79253446 31.02001953 52.84106445 C29.65818039 52.86031731 29.65818039 52.86031731 28.26882935 52.87995911 C26.79384476 52.89103951 26.79384476 52.89103951 25.2890625 52.90234375 C24.28036102 52.9104155 23.27165955 52.91848724 22.23239136 52.92680359 C20.09553754 52.94064842 17.95866156 52.95136879 15.82177734 52.95922852 C12.55133305 52.97645671 9.28189547 53.02034147 6.01171875 53.06445312 C3.93750745 53.07457851 1.86328754 53.08309509 -0.2109375 53.08984375 C-1.1902121 53.10735184 -2.16948669 53.12485992 -3.17843628 53.14289856 C-9.97204379 53.121158 -9.97204379 53.121158 -13.18017578 50.76245117 C-17.26279145 44.70198802 -15.89936593 36.38001404 -15.94384766 29.27075195 C-15.96040444 27.32987475 -15.98769088 25.38905844 -16.02587891 23.44848633 C-16.0806834 20.64892985 -16.10252664 17.85080212 -16.1171875 15.05078125 C-16.13985687 14.18603683 -16.16252625 13.32129242 -16.18588257 12.43034363 C-16.17156931 8.34223836 -15.90122413 6.16460084 -13.72314453 2.61889648 C-9.17565294 -0.22177797 -5.26665373 -0.05402992 0 0 Z " fill="#484868" transform="translate(104.59375,372.3359375)"/>
<path d="M0 0 C1.02428101 -0.00336868 2.04856201 -0.00673737 3.10388184 -0.01020813 C5.26575755 -0.00990962 7.42767581 0.00530759 9.58935547 0.03442383 C12.89552174 0.07409004 16.19767426 0.05513066 19.50390625 0.02929688 C21.60678637 0.03685637 23.7096576 0.04781021 25.8125 0.0625 C27.29236389 0.05202385 27.29236389 0.05202385 28.80212402 0.04133606 C33.19787489 0.13162527 35.74286372 0.34719315 39.52685547 2.71166992 C42.14257588 6.95669397 42.12686316 10.36043668 42.0703125 15.26171875 C42.07509613 16.17501953 42.07987976 17.08832031 42.08480835 18.02929688 C42.08820317 19.95574674 42.07902994 21.88225454 42.05810547 23.80859375 C42.03133281 26.75261223 42.05786622 29.69281845 42.08984375 32.63671875 C42.08653958 34.51172714 42.08013318 36.38673317 42.0703125 38.26171875 C42.08043365 39.13892578 42.09055481 40.01613281 42.10098267 40.91992188 C42.02263461 45.01785074 41.71291821 47.26403026 39.52685547 50.81176758 C34.98865352 53.64752246 31.07028926 53.49815808 25.8125 53.4609375 C24.27607849 53.47167046 24.27607849 53.47167046 22.70861816 53.48262024 C20.54680247 53.49039159 18.3849082 53.48539715 16.22314453 53.46850586 C12.91678812 53.44928003 9.61463455 53.48867318 6.30859375 53.53320312 C4.20572667 53.53349349 2.10285573 53.53035343 0 53.5234375 C-1.47986389 53.54636116 -1.47986389 53.54636116 -2.98962402 53.56974792 C-7.73648026 53.48920816 -9.90746961 53.30652294 -13.71435547 50.28442383 C-16.08346318 45.84380871 -16.31859764 42.59243114 -16.2578125 37.63671875 C-16.26259613 36.77159668 -16.26737976 35.90647461 -16.27230835 35.01513672 C-16.27569832 33.19301527 -16.26655916 31.37083225 -16.24560547 29.54882812 C-16.21882446 26.76944588 -16.2453813 23.99410131 -16.27734375 21.21484375 C-16.27403949 19.43879322 -16.26763291 17.6627452 -16.2578125 15.88671875 C-16.26793365 15.06155762 -16.27805481 14.23639648 -16.28848267 13.38623047 C-16.20504558 9.25158984 -15.70047551 6.96176323 -13.71435547 3.23901367 C-9.22346278 -0.32608475 -5.58751524 -0.08655276 0 0 Z " fill="#494969" transform="translate(381.59375,284.23828125)"/>
<path d="M0 0 C1.02428101 -0.00336868 2.04856201 -0.00673737 3.10388184 -0.01020813 C5.26575755 -0.00990962 7.42767581 0.00530759 9.58935547 0.03442383 C12.89552174 0.07409004 16.19767426 0.05513066 19.50390625 0.02929688 C21.60678637 0.03685637 23.7096576 0.04781021 25.8125 0.0625 C27.29236389 0.05202385 27.29236389 0.05202385 28.80212402 0.04133606 C33.19787489 0.13162527 35.74286372 0.34719315 39.52685547 2.71166992 C42.14257588 6.95669397 42.12686316 10.36043668 42.0703125 15.26171875 C42.07509613 16.17501953 42.07987976 17.08832031 42.08480835 18.02929688 C42.08820317 19.95574674 42.07902994 21.88225454 42.05810547 23.80859375 C42.03133281 26.75261223 42.05786622 29.69281845 42.08984375 32.63671875 C42.08653958 34.51172714 42.08013318 36.38673317 42.0703125 38.26171875 C42.08043365 39.13892578 42.09055481 40.01613281 42.10098267 40.91992188 C42.02263461 45.01785074 41.71291821 47.26403026 39.52685547 50.81176758 C34.98865352 53.64752246 31.07028926 53.49815808 25.8125 53.4609375 C24.27607849 53.47167046 24.27607849 53.47167046 22.70861816 53.48262024 C20.54680247 53.49039159 18.3849082 53.48539715 16.22314453 53.46850586 C12.91678812 53.44928003 9.61463455 53.48867318 6.30859375 53.53320312 C4.20572667 53.53349349 2.10285573 53.53035343 0 53.5234375 C-1.47986389 53.54636116 -1.47986389 53.54636116 -2.98962402 53.56974792 C-7.73648026 53.48920816 -9.90746961 53.30652294 -13.71435547 50.28442383 C-16.08346318 45.84380871 -16.31859764 42.59243114 -16.2578125 37.63671875 C-16.26259613 36.77159668 -16.26737976 35.90647461 -16.27230835 35.01513672 C-16.27569832 33.19301527 -16.26655916 31.37083225 -16.24560547 29.54882812 C-16.21882446 26.76944588 -16.2453813 23.99410131 -16.27734375 21.21484375 C-16.27403949 19.43879322 -16.26763291 17.6627452 -16.2578125 15.88671875 C-16.26793365 15.06155762 -16.27805481 14.23639648 -16.28848267 13.38623047 C-16.20504558 9.25158984 -15.70047551 6.96176323 -13.71435547 3.23901367 C-9.22346278 -0.32608475 -5.58751524 -0.08655276 0 0 Z " fill="#494969" transform="translate(196.59375,284.23828125)"/>
<path d="M0 0 C0.90466507 -0.01606293 1.80933014 -0.03212585 2.7414093 -0.04867554 C6.88065868 -0.09311752 11.01974755 -0.13418994 15.15917969 -0.15722656 C17.34255633 -0.17378821 19.52587871 -0.20108079 21.70898438 -0.23925781 C24.85599917 -0.29401335 28.00174297 -0.3158988 31.14916992 -0.33056641 C32.61033989 -0.36457047 32.61033989 -0.36457047 34.10102844 -0.39926147 C38.47753553 -0.38561646 40.96151881 -0.21979888 44.74316406 2.1159668 C47.3933664 6.43853702 47.34961876 9.9621832 47.29370117 14.94677734 C47.2984848 15.88464584 47.30326843 16.82251434 47.30819702 17.7888031 C47.31159197 19.76652713 47.30241789 21.74430758 47.28149414 23.72192383 C47.25469227 26.74931733 47.28127057 29.77301354 47.31323242 32.80029297 C47.30992884 34.72412927 47.30352367 36.64796328 47.29370117 38.57177734 C47.30382233 39.47601944 47.31394348 40.38026154 47.32437134 41.31190491 C47.2501396 45.28918473 47.14085383 47.49551199 44.75024414 50.7565918 C40.17971242 52.86020924 36.0155481 52.8036341 31.03588867 52.79443359 C30.01160767 52.80300385 28.98732666 52.8115741 27.93200684 52.82040405 C25.77021233 52.83187055 23.60834067 52.83290588 21.4465332 52.82421875 C18.14034571 52.81789158 14.83772825 52.86485138 11.53198242 52.91552734 C9.42912235 52.92007301 7.32625266 52.92148047 5.22338867 52.91943359 C4.23681274 52.93785309 3.25023682 52.95627258 2.23376465 52.97525024 C-2.51522839 52.91125503 -4.68063019 52.73905878 -8.49316406 49.7199707 C-10.86579249 45.26199659 -11.07884038 42.00397527 -10.99926758 37.03271484 C-11.00167953 36.1652211 -11.00409149 35.29772736 -11.00657654 34.40394592 C-11.00560071 32.57760019 -10.99227034 30.75122391 -10.96728516 28.92504883 C-10.93291888 26.13504363 -10.94665297 23.34819893 -10.96606445 20.55810547 C-10.95916685 18.77879516 -10.94949524 16.999493 -10.93676758 15.22021484 C-10.94172745 14.38989243 -10.94668732 13.55957001 -10.95179749 12.7040863 C-10.87028074 8.68348364 -10.66964617 6.66312121 -8.45996094 3.19116211 C-5.52882129 0.38810357 -3.94354558 0.06358028 0 0 Z " fill="#494969" transform="translate(191.370361328125,196.80712890625)"/>
<path d="M0 0 C7.88886133 7.35131461 7.88886133 7.35131461 8.11352539 12.70556641 C8.10567017 14.38658447 8.10567017 14.38658447 8.09765625 16.1015625 C8.09515869 17.19291504 8.09266113 18.28426758 8.09008789 19.40869141 C8.08098389 20.80007324 8.07187988 22.19145508 8.0625 23.625 C8.041875 28.03875 8.02125 32.4525 8 37 C-3.88 37 -15.76 37 -28 37 C-27.67 47.23 -27.34 57.46 -27 68 C-23.56926101 69.71536949 -22.50155668 70.19718657 -19 70.375 C-16.16495415 70.69764514 -14.9928615 71.00446156 -12.5 72.5625 C-10.35578033 76.04685697 -10.07820277 79.01914115 -11 83 C-13.71422755 86.39278443 -15.38356726 86.92686391 -19.6875 87.4375 C-28.55846826 86.88723317 -34.63361907 84.10152549 -41.1875 78.1328125 C-45.10480083 73.52323006 -45.27969043 68.91722406 -45.1953125 63.07421875 C-45.19329834 62.41087524 -45.19128418 61.74753174 -45.18920898 61.06408691 C-45.17880824 58.60515346 -45.15088592 56.1463192 -45.125 53.6875 C-45.08375 48.180625 -45.0425 42.67375 -45 37 C-61.17 37 -77.34 37 -94 37 C-94 36.67 -94 36.34 -94 36 C-77.83 36 -61.66 36 -45 36 C-45.11822631 28.04240929 -45.11822631 28.04240929 -45.27026367 20.08544922 C-45.32115983 13.29163316 -45.04744315 8.54120609 -40.45703125 3.20703125 C-29.98833841 -5.67022135 -11.88315164 -8.04056242 0 0 Z M-28 15 C-28 21.93 -28 28.86 -28 36 C-21.73 36 -15.46 36 -9 36 C-9 29.07 -9 22.14 -9 15 C-18.5 11.0366277 -18.5 11.0366277 -28 15 Z " fill="#524E6C" transform="translate(149,17)"/>
<path d="M0 0 C3.58322837 3.27967679 6.45225304 6.35675913 8 11 C8.08291953 12.9920303 8.10738177 14.98673713 8.09765625 16.98046875 C8.09515869 18.02871826 8.09266113 19.07696777 8.09008789 20.15698242 C8.08098389 21.48705322 8.07187988 22.81712402 8.0625 24.1875 C8.041875 28.415625 8.02125 32.64375 8 37 C-3.88 37 -15.76 37 -28 37 C-27.505 52.345 -27.505 52.345 -27 68 C-23.56926101 69.71536949 -22.50155668 70.19718657 -19 70.375 C-16.11833646 70.69757428 -15.0114272 70.99257232 -12.5 72.625 C-10.36096771 76.01180113 -10.37912533 78.06779376 -11 82 C-13 84.9375 -13 84.9375 -16 87 C-23.00807363 88.10653794 -29.6461668 85.98081064 -36 83 C-40.54053287 79.67919433 -43.19242648 76.33051906 -45 71 C-45.26742554 68.12330627 -45.26742554 68.12330627 -45.29052734 64.92797852 C-45.30328705 63.72645645 -45.31604675 62.52493439 -45.32919312 61.28700256 C-45.33141876 59.99733078 -45.33364441 58.707659 -45.3359375 57.37890625 C-45.3423705 56.03278972 -45.34909923 54.68667456 -45.35610962 53.34056091 C-45.36806017 50.52380126 -45.37179266 47.70716406 -45.37060547 44.89038086 C-45.37040219 41.2912502 -45.39772254 37.69290832 -45.43214989 34.09396458 C-45.45444759 31.31516451 -45.45844219 28.53655361 -45.45738602 25.75767326 C-45.46087523 23.78903732 -45.48251609 21.82046041 -45.50448608 19.85194397 C-45.44798897 8.79103847 -45.44798897 8.79103847 -41 4 C-30.95319883 -5.81846478 -12.02857025 -8.11647451 0 0 Z M-28 15 C-28 21.93 -28 28.86 -28 36 C-21.73 36 -15.46 36 -9 36 C-9 29.07 -9 22.14 -9 15 C-18.5 11.0366277 -18.5 11.0366277 -28 15 Z " fill="#4F4D6B" transform="translate(400,17)"/>
<path d="M0 0 C5.18072861 2.88944746 9.00834158 5.86571775 11.6875 11.25 C12.02807617 14.38793945 12.02807617 14.38793945 11.98046875 17.86328125 C11.96922974 19.54997925 11.96922974 19.54997925 11.95776367 21.27075195 C11.93045166 22.68702881 11.90313965 24.10330566 11.875 25.5625 C11.813125 30.079375 11.75125 34.59625 11.6875 39.25 C-0.1925 39.25 -12.0725 39.25 -24.3125 39.25 C-23.8175 54.595 -23.8175 54.595 -23.3125 70.25 C-18.6925 71.57 -14.0725 72.89 -9.3125 74.25 C-6.3125 78.25 -6.3125 78.25 -6.4375 81.8125 C-7.27775442 85.1134995 -7.62209307 86.31290701 -10.3125 88.25 C-14.66585474 90.42667737 -19.00435407 89.60531856 -23.51953125 88.37890625 C-31.30856073 85.66387312 -36.56748448 82.74003104 -40.3125 75.25 C-40.42952531 73.25540653 -40.48225275 71.25692299 -40.50537109 69.2590332 C-40.52143402 68.00044998 -40.53749695 66.74186676 -40.55404663 65.44514465 C-40.56553607 64.06369706 -40.57614428 62.68224191 -40.5859375 61.30078125 C-40.59126118 60.60526846 -40.59658485 59.90975567 -40.60206985 59.19316673 C-40.62880339 55.50875323 -40.64817386 51.82437356 -40.66259766 48.13989258 C-40.67591508 45.09694205 -40.70372467 42.05466562 -40.74462891 39.01196289 C-40.79408221 35.33318217 -40.81873445 31.655011 -40.82582474 27.97591209 C-40.83251765 26.57771338 -40.84768879 25.17952722 -40.87171555 23.78151894 C-41.07090461 11.48580145 -41.07090461 11.48580145 -37.92675781 6.94555664 C-35.56713177 4.51255037 -33.70043038 2.87628833 -30.6875 1.375 C-29.93210938 0.98570313 -29.17671875 0.59640625 -28.3984375 0.1953125 C-20.59332969 -3.34183374 -7.95970898 -3.44605397 0 0 Z M-24.3125 18.25 C-24.86087595 20.46269202 -24.86087595 20.46269202 -24.703125 22.91796875 C-24.69313477 23.72258545 -24.68314453 24.52720215 -24.67285156 25.35620117 C-24.63643555 26.37302979 -24.60001953 27.3898584 -24.5625 28.4375 C-24.48 31.675625 -24.3975 34.91375 -24.3125 38.25 C-17.7125 38.25 -11.1125 38.25 -4.3125 38.25 C-4.23 35.011875 -4.1475 31.77375 -4.0625 28.4375 C-4.00787598 26.91225708 -4.00787598 26.91225708 -3.95214844 25.35620117 C-3.9421582 24.55158447 -3.93216797 23.74696777 -3.921875 22.91796875 C-3.90092773 22.09578857 -3.87998047 21.2736084 -3.85839844 20.42651367 C-4.13183403 18.08956493 -4.13183403 18.08956493 -6.15722656 16.4831543 C-8.99317633 14.86054643 -11.06077988 14.8506121 -14.3125 14.875 C-15.859375 14.86339844 -15.859375 14.86339844 -17.4375 14.8515625 C-20.72352652 15.30696291 -21.93767515 15.97543576 -24.3125 18.25 Z " fill="#4C4B6A" transform="translate(270.3125,14.75)"/>
<path d="M0 0 C1.94140625 0.34765625 1.94140625 0.34765625 4.44140625 1.97265625 C6.42085642 5.10678568 6.52644586 6.69115866 5.94140625 10.34765625 C3.06627852 15.1395358 -0.42599183 19.2344664 -4.12109375 23.41015625 C-5.27814614 24.72846285 -6.43438093 26.04748746 -7.58984375 27.3671875 C-8.16863281 28.02799316 -8.74742187 28.68879883 -9.34375 29.36962891 C-10.98820593 31.26646574 -12.6069845 33.18147035 -14.21484375 35.109375 C-14.705896 35.69775146 -15.19694824 36.28612793 -15.70288086 36.89233398 C-16.62379208 37.9996786 -17.54147007 39.10972307 -18.45532227 40.22290039 C-23.1801418 45.8899448 -23.1801418 45.8899448 -26.05859375 47.34765625 C-30.23114488 47.69103328 -32.04166417 47.11792813 -35.38574219 44.58496094 C-38.00067042 42.21534328 -40.47251364 39.75147251 -42.93359375 37.22265625 C-43.79984375 36.37960938 -44.66609375 35.5365625 -45.55859375 34.66796875 C-52.48581724 27.67559896 -52.48581724 27.67559896 -53.21875 23.4140625 C-53.05859375 20.34765625 -53.05859375 20.34765625 -51.62109375 17.41015625 C-48.84901682 15.17897238 -46.93738115 14.39943814 -43.34765625 14.57421875 C-39.15799106 15.98983941 -36.37887767 19.25921042 -33.35546875 22.37890625 C-31.05661652 24.78151717 -31.05661652 24.78151717 -27.05859375 24.34765625 C-24.8974171 22.52808137 -24.8974171 22.52808137 -22.87109375 20.03515625 C-22.09121094 19.13023437 -21.31132812 18.2253125 -20.5078125 17.29296875 C-17.31168236 13.44945659 -14.13348739 9.5932675 -11.00390625 5.6953125 C-7.39601515 1.34121099 -6.05149915 -0.25632501 0 0 Z " fill="#D23131" transform="translate(418.05859375,199.65234375)"/>
<path d="M0 0 C7.99651568 -0.6271777 7.99651568 -0.6271777 12 1.875 C15.72059235 5.82812937 15.17722945 9.59671118 15.203125 14.76953125 C15.20882507 15.64268478 15.21452515 16.51583832 15.22039795 17.41545105 C15.22985345 19.26564317 15.23638411 21.11585218 15.24023438 22.96606445 C15.24992565 25.79082844 15.28093755 28.61486044 15.3125 31.43945312 C15.31903152 33.23697485 15.32428141 35.03450177 15.328125 36.83203125 C15.3404718 37.67490189 15.3528186 38.51777252 15.36553955 39.38618469 C15.34780892 44.07715653 15.0664195 47.19777047 12 51 C9.35541621 52.32229189 7.32238699 52.09677194 4.375 52.0625 C3.37210937 52.05347656 2.36921875 52.04445312 1.3359375 52.03515625 C0.56507813 52.02355469 -0.20578125 52.01195312 -1 52 C-0.0253479 51.31550781 -0.0253479 51.31550781 0.96899414 50.6171875 C4.03747558 46.66309193 3.55500725 42.99821076 3.49609375 38.125 C3.49754898 37.16352051 3.49900421 36.20204102 3.50050354 35.21142578 C3.49884514 33.18063321 3.48729044 31.14982799 3.46655273 29.11914062 C3.43760409 26.01117552 3.44594398 22.90491686 3.45898438 19.796875 C3.45274664 17.82290838 3.44435543 15.84894714 3.43359375 13.875 C3.43652939 12.94574707 3.43946503 12.01649414 3.44248962 11.05908203 C3.40781331 5.9826758 3.40781331 5.9826758 1.47290039 1.3828125 C0.98684326 0.92648438 0.50078613 0.47015625 0 0 Z " fill="#404057" transform="translate(316,197)"/>
<path d="M0 0 C1.72694675 -0.13609913 3.45704722 -0.23249228 5.1875 -0.3125 C6.15042969 -0.37050781 7.11335937 -0.42851562 8.10546875 -0.48828125 C12.23309571 0.2080121 13.45622779 1.70222436 16 5 C16.6964139 8.11372614 16.63092326 11.13743182 16.55859375 14.31640625 C16.55509666 15.65662086 16.55509666 15.65662086 16.55152893 17.02391052 C16.54180917 18.90755804 16.52006282 20.79117708 16.48706055 22.67456055 C16.43760696 25.55626737 16.42557545 28.43626625 16.41992188 31.31835938 C16.40583658 33.15105981 16.38963242 34.98374545 16.37109375 36.81640625 C16.36573105 37.67690079 16.36036835 38.53739532 16.35484314 39.42396545 C16.33885574 40.2283757 16.32286835 41.03278595 16.30639648 41.86157227 C16.29043678 42.91816795 16.29043678 42.91816795 16.27415466 43.99610901 C15.9470949 46.38670166 15.27920756 47.95656579 14 50 C10.68629 52.20914 9.6553979 52.22481553 5.8125 52.125 C4.91144531 52.10695313 4.01039063 52.08890625 3.08203125 52.0703125 C2.39496094 52.04710937 1.70789063 52.02390625 1 52 C1.64831787 51.19820313 2.29663574 50.39640625 2.96459961 49.5703125 C5.67381683 45.48158179 5.59517975 41.66197561 5.56640625 36.875 C5.57260483 36.00987793 5.57880341 35.14475586 5.58518982 34.25341797 C5.59226756 32.4313265 5.58914981 30.60917009 5.57641602 28.78710938 C5.56253944 26.00789908 5.59666109 23.23205192 5.63476562 20.453125 C5.63571685 18.67708251 5.63385783 16.90103584 5.62890625 15.125 C5.64216446 14.29983887 5.65542267 13.47467773 5.66908264 12.62451172 C5.5744726 6.72881219 4.19966161 4.14674396 0 0 Z " fill="#3F3F56" transform="translate(130,285)"/>
<path d="M0 0 C10.12055838 -0.62817259 10.12055838 -0.62817259 13.625 1.875 C16.39067294 6.14922182 16.16147783 9.83463824 16.16796875 14.8046875 C16.17129715 15.68021271 16.17462555 16.55573792 16.17805481 17.45779419 C16.1831227 19.31218947 16.18546318 21.16659389 16.18530273 23.02099609 C16.18748583 25.8565987 16.20563353 28.6918102 16.22460938 31.52734375 C16.227544 33.32812367 16.22952833 35.12890544 16.23046875 36.9296875 C16.23765427 37.77771942 16.24483978 38.62575134 16.25224304 39.4994812 C16.24916641 40.29355377 16.24608978 41.08762634 16.24291992 41.90576172 C16.24434494 42.60144257 16.24576996 43.29712341 16.24723816 44.0138855 C15.9489334 46.41022843 15.28168469 47.95651792 14 50 C10.68629 52.20914 9.6553979 52.22481553 5.8125 52.125 C4.91144531 52.10695313 4.01039063 52.08890625 3.08203125 52.0703125 C2.39496094 52.04710937 1.70789063 52.02390625 1 52 C1.64831787 51.19820313 2.29663574 50.39640625 2.96459961 49.5703125 C5.67381683 45.48158179 5.59517975 41.66197561 5.56640625 36.875 C5.57260483 36.00987793 5.57880341 35.14475586 5.58518982 34.25341797 C5.59226756 32.4313265 5.58914981 30.60917009 5.57641602 28.78710938 C5.56253944 26.00789908 5.59666109 23.23205192 5.63476562 20.453125 C5.63571685 18.67708251 5.63385783 16.90103584 5.62890625 15.125 C5.64216446 14.29983887 5.65542267 13.47467773 5.66908264 12.62451172 C5.5744726 6.72881219 4.19966161 4.14674396 0 0 Z " fill="#404057" transform="translate(315,285)"/>
<path d="M0 0 C1.56002428 -0.1363128 3.12357176 -0.23259126 4.6875 -0.3125 C5.55761719 -0.37050781 6.42773438 -0.42851562 7.32421875 -0.48828125 C11.30186836 0.23756722 12.54373828 1.8145632 15 5 C15.73385289 8.25261773 15.70134799 11.43021084 15.6640625 14.75390625 C15.66884613 15.69177475 15.67362976 16.62964325 15.67855835 17.59593201 C15.6819533 19.57365603 15.67277922 21.55143648 15.65185547 23.52905273 C15.62505359 26.55644623 15.65163189 29.58014245 15.68359375 32.60742188 C15.68029017 34.53125818 15.673885 36.45509218 15.6640625 38.37890625 C15.67418365 39.28314835 15.68430481 40.18739044 15.69473267 41.11903381 C15.57801545 47.37265264 15.57801545 47.37265264 12.62573242 50.5769043 C9.68136397 52.17269451 8.00572292 52.42697189 4.6875 52.25 C3.80449219 52.21390625 2.92148438 52.1778125 2.01171875 52.140625 C1.34785156 52.09421875 0.68398437 52.0478125 0 52 C0.64904297 51.3709375 1.29808594 50.741875 1.96679688 50.09375 C4.7636269 45.83805475 4.57727977 42.4867876 4.53125 37.5 C4.5350769 36.58669922 4.53890381 35.67339844 4.54284668 34.73242188 C4.54556253 32.80597834 4.53822424 30.87949772 4.52148438 28.953125 C4.50006968 26.00957792 4.52129671 23.06847145 4.546875 20.125 C4.54423167 18.24999463 4.53910657 16.37499077 4.53125 14.5 C4.53934692 13.62279297 4.54744385 12.74558594 4.55578613 11.84179688 C4.49094133 7.60223095 4.35360147 5.53804489 1.96679688 1.90625 C1.31775391 1.2771875 0.66871094 0.648125 0 0 Z " fill="#3D3D55" transform="translate(223,197)"/>
<path d="M0 0 C1.72694675 -0.13609913 3.45704722 -0.23249228 5.1875 -0.3125 C6.15042969 -0.37050781 7.11335938 -0.42851562 8.10546875 -0.48828125 C12.23858554 0.20893818 13.45310898 1.69502103 16 5 C16.72971233 8.1692104 16.70146151 11.25860382 16.6640625 14.5 C16.66884613 15.41330078 16.67362976 16.32660156 16.67855835 17.26757812 C16.68195317 19.19402799 16.67277994 21.12053579 16.65185547 23.046875 C16.62508281 25.99089348 16.65161622 28.9310997 16.68359375 31.875 C16.68028958 33.75000839 16.67388318 35.62501442 16.6640625 37.5 C16.67418365 38.37720703 16.68430481 39.25441406 16.69473267 40.15820312 C16.60983384 44.59876428 16.42899805 46.44651532 13.62573242 50.06323242 C10.63839802 52.26672139 9.33820519 52.55588035 5.6875 52.3125 C4.80449219 52.26738281 3.92148437 52.22226562 3.01171875 52.17578125 C2.01591797 52.08876953 2.01591797 52.08876953 1 52 C1.65049316 51.3723877 2.30098633 50.74477539 2.97119141 50.09814453 C5.77595829 45.81505286 5.54244614 42.44055526 5.4609375 37.4296875 C5.46002106 36.51164337 5.45910461 35.59359924 5.4581604 34.6477356 C5.452133 32.71285817 5.43641292 30.7779897 5.41162109 28.84326172 C5.37503988 25.87823223 5.37060241 22.91445069 5.37109375 19.94921875 C5.36126486 18.06769751 5.34960886 16.18618474 5.3359375 14.3046875 C5.33259903 12.9733931 5.33259903 12.9733931 5.32919312 11.61520386 C5.31643341 10.79069733 5.30367371 9.9661908 5.29052734 9.11669922 C5.28290375 8.39231659 5.27528015 7.66793396 5.26742554 6.92160034 C5.09653277 4.67385708 5.09653277 4.67385708 3 2 C2.01 1.34 1.02 0.68 0 0 Z " fill="#3D3D54" transform="translate(407,285)"/>
<path d="M0 0 C1.72694675 -0.13609913 3.45704722 -0.23249228 5.1875 -0.3125 C6.15042969 -0.37050781 7.11335937 -0.42851562 8.10546875 -0.48828125 C12.23858554 0.20893818 13.45310898 1.69502103 16 5 C16.72971233 8.1692104 16.70146151 11.25860382 16.6640625 14.5 C16.66884613 15.41330078 16.67362976 16.32660156 16.67855835 17.26757812 C16.68195317 19.19402799 16.67277994 21.12053579 16.65185547 23.046875 C16.62508281 25.99089348 16.65161622 28.9310997 16.68359375 31.875 C16.68028958 33.75000839 16.67388318 35.62501442 16.6640625 37.5 C16.67418365 38.37720703 16.68430481 39.25441406 16.69473267 40.15820312 C16.60983384 44.59876428 16.42899805 46.44651532 13.62573242 50.06323242 C10.63839802 52.26672139 9.33820519 52.55588035 5.6875 52.3125 C4.80449219 52.26738281 3.92148438 52.22226562 3.01171875 52.17578125 C2.01591797 52.08876953 2.01591797 52.08876953 1 52 C1.65049316 51.3723877 2.30098633 50.74477539 2.97119141 50.09814453 C5.77595829 45.81505286 5.54244614 42.44055526 5.4609375 37.4296875 C5.46002106 36.51164337 5.45910461 35.59359924 5.4581604 34.6477356 C5.452133 32.71285817 5.43641292 30.7779897 5.41162109 28.84326172 C5.37503988 25.87823223 5.37060241 22.91445069 5.37109375 19.94921875 C5.36126486 18.06769751 5.34960886 16.18618474 5.3359375 14.3046875 C5.33259903 12.9733931 5.33259903 12.9733931 5.32919312 11.61520386 C5.31643341 10.79069733 5.30367371 9.9661908 5.29052734 9.11669922 C5.28290375 8.39231659 5.27528015 7.66793396 5.26742554 6.92160034 C5.09653277 4.67385708 5.09653277 4.67385708 3 2 C2.01 1.34 1.02 0.68 0 0 Z " fill="#3D3D54" transform="translate(222,285)"/>
<path d="M0 0 C1.41623216 -0.05447047 2.83308191 -0.09300508 4.25 -0.125 C5.03890625 -0.14820313 5.8278125 -0.17140625 6.640625 -0.1953125 C9.30515759 0.02526139 10.7902517 0.49850436 13 2 C14.66040151 4.76163945 15.25314854 6.84107971 15.2746582 10.04663086 C15.28419022 10.83102036 15.29372223 11.61540985 15.30354309 12.42356873 C15.30263168 13.26218948 15.30172028 14.10081024 15.30078125 14.96484375 C15.30506638 15.83516739 15.3093515 16.70549103 15.31376648 17.60218811 C15.31950201 19.44043102 15.32001576 21.27869663 15.31567383 23.11694336 C15.31251512 25.92406065 15.33597787 28.73012241 15.36132812 31.53710938 C15.36360138 33.32551951 15.36430449 35.11393247 15.36328125 36.90234375 C15.372491 37.73894028 15.38170074 38.5755368 15.39118958 39.43748474 C15.35425877 44.10685788 15.04345921 47.21271806 12 51 C9.47524538 52.26237731 7.68799534 52.09856404 4.875 52.0625 C3.96492187 52.05347656 3.05484375 52.04445312 2.1171875 52.03515625 C1.41851562 52.02355469 0.71984375 52.01195312 0 52 C0.33 51.34 0.66 50.68 1 50 C1.66 50 2.32 50 3 50 C3.76455252 47.26652728 4.13617121 44.80466729 4.17700195 41.96923828 C4.18983719 41.18807648 4.20267242 40.40691467 4.21589661 39.6020813 C4.22328354 38.7665976 4.23067047 37.93111389 4.23828125 37.0703125 C4.246353 36.20236053 4.25442474 35.33440857 4.26274109 34.44015503 C4.27655088 32.60611959 4.28728688 30.77205879 4.29516602 28.93798828 C4.30670041 27.06616668 4.32717525 25.19437835 4.35668945 23.32275391 C4.39940373 20.61338017 4.41553862 17.90498129 4.42578125 15.1953125 C4.44328934 14.36387726 4.46079742 13.53244202 4.47883606 12.67581177 C4.45836365 7.16531524 3.4917056 4.29130316 0 0 Z " fill="#3F3F56" transform="translate(131,197)"/>
<path d="M0 0 C10.12055838 -0.62817259 10.12055838 -0.62817259 13.625 1.875 C16.37721906 6.12842945 16.19521729 9.82040469 16.23828125 14.76953125 C16.246353 15.64268478 16.25442474 16.51583832 16.26274109 17.41545105 C16.27658364 19.2656353 16.28730503 21.11584512 16.29516602 22.96606445 C16.3123692 25.79102197 16.35625166 28.61480621 16.40039062 31.43945312 C16.41051847 33.23697056 16.41903429 35.03449795 16.42578125 36.83203125 C16.44328934 37.67490189 16.46079742 38.51777252 16.47883606 39.38618469 C16.46389257 43.44183685 16.30240938 45.50678894 14.13452148 49.04248047 C12 51 12 51 9.421875 51.48828125 C8.09929687 51.40126953 8.09929687 51.40126953 6.75 51.3125 C5.85796875 51.26738281 4.9659375 51.22226562 4.046875 51.17578125 C3.03367187 51.08876953 3.03367187 51.08876953 2 51 C2.48533203 50.19369141 2.97066406 49.38738281 3.47070312 48.55664062 C5.33953165 44.21036125 5.46757854 40.76576305 5.46875 36.09375 C5.47636353 35.25082397 5.48397705 34.40789795 5.49182129 33.53942871 C5.50258481 31.76443431 5.50549069 29.98937677 5.50097656 28.21435547 C5.50000277 25.50771185 5.54169386 22.80389224 5.5859375 20.09765625 C5.59114419 18.36719337 5.5938327 16.63672071 5.59375 14.90625 C5.61014526 14.10296265 5.62654053 13.29967529 5.64343262 12.4720459 C5.57209717 6.6382888 4.14140456 4.10856233 0 0 Z " fill="#404057" transform="translate(315,373)"/>
<path d="M0 0 C1.56002428 -0.1363128 3.12357176 -0.23259126 4.6875 -0.3125 C5.55761719 -0.37050781 6.42773438 -0.42851562 7.32421875 -0.48828125 C11.28461071 0.23441801 12.54406057 1.84261637 15 5 C15.7179388 8.09841182 15.67803374 11.11186432 15.62890625 14.28125 C15.63131821 15.17235474 15.63373016 16.06345947 15.63621521 16.98156738 C15.63523803 18.86096661 15.62187511 20.74039507 15.59692383 22.61962891 C15.56260867 25.4909068 15.57627211 28.35910638 15.59570312 31.23046875 C15.58880438 33.05990889 15.57913173 34.88934111 15.56640625 36.71875 C15.57136612 37.57408325 15.57632599 38.4294165 15.58143616 39.31066895 C15.50140858 43.37530627 15.29955287 45.51260715 13.12573242 49.04956055 C11 51 11 51 8.421875 51.48828125 C7.09929687 51.40126953 7.09929687 51.40126953 5.75 51.3125 C4.85796875 51.26738281 3.9659375 51.22226562 3.046875 51.17578125 C2.03367188 51.08876953 2.03367188 51.08876953 1 51 C1.48823242 50.36263916 1.97646484 49.72527832 2.47949219 49.06860352 C4.5372547 44.91574272 4.39556785 41.47214671 4.328125 36.90234375 C4.32625183 36.03106339 4.32437866 35.15978302 4.32244873 34.26210022 C4.31574377 32.42558956 4.30186027 30.5890928 4.28125 28.75268555 C4.25006896 25.94371236 4.24027292 23.1353011 4.234375 20.32617188 C4.22520512 18.53905567 4.21482939 16.75194516 4.203125 14.96484375 C4.19887512 14.12622299 4.19462524 13.28760223 4.19024658 12.42356873 C4.18063904 11.63917923 4.17103149 10.85478973 4.16113281 10.04663086 C4.15089081 9.01668251 4.15089081 9.01668251 4.14044189 7.96592712 C3.98719691 5.82078043 3.75599332 4.01945031 3 2 C2.01 1.67 1.02 1.34 0 1 C0 0.67 0 0.34 0 0 Z " fill="#3F3F56" transform="translate(131,373)"/>
<path d="M0 0 C1.56091166 -0.10911227 3.12408492 -0.18609398 4.6875 -0.25 C5.55761719 -0.29640625 6.42773438 -0.3428125 7.32421875 -0.390625 C11.07544986 0.15699998 12.4263089 1.19908594 15 4 C15.7357577 7.21576834 15.65312876 10.36999315 15.59375 13.65625 C15.59379028 14.59553345 15.59383057 15.53481689 15.59387207 16.50256348 C15.58851615 18.48631489 15.57093031 20.47006571 15.54199219 22.45361328 C15.50014795 25.48926669 15.50092281 28.52270067 15.5078125 31.55859375 C15.49731944 33.48699458 15.48438071 35.41538397 15.46875 37.34375 C15.46854858 38.25112915 15.46834717 39.1585083 15.46813965 40.09338379 C15.35085482 46.34154728 15.35085482 46.34154728 13.62573242 49.57910156 C11.33440272 51.58173542 9.80494928 51.40545191 6.8125 51.25 C5.91144531 51.21390625 5.01039063 51.1778125 4.08203125 51.140625 C3.39496094 51.09421875 2.70789063 51.0478125 2 51 C2.32400787 50.42724838 2.64801575 49.85449677 2.98184204 49.26438904 C4.0544453 46.87891335 4.26314675 45.36346232 4.29052734 42.76977539 C4.30328705 41.94534439 4.31604675 41.12091339 4.32919312 40.27149963 C4.33141876 39.38913132 4.33364441 38.506763 4.3359375 37.59765625 C4.3425943 36.68294052 4.3492511 35.76822479 4.35610962 34.82579041 C4.36622355 32.89340218 4.37092703 30.96097912 4.37060547 29.02856445 C4.37497941 26.07639939 4.41131391 23.12572885 4.44921875 20.17382812 C4.45508706 18.29427594 4.45905636 16.41471666 4.4609375 14.53515625 C4.47530853 13.65481216 4.48967957 12.77446808 4.50448608 11.8674469 C4.47284221 7.61150143 4.36275434 5.55356051 1.97119141 1.90405273 C1.32069824 1.27571533 0.67020508 0.64737793 0 0 Z " fill="#3D3D54" transform="translate(223,373)"/>
<path d="M0 0 C4.34731225 2.2146685 7.48432837 4.80721395 10 9 C11.23467448 12.92987853 11.64525637 16.31878158 10.1484375 20.21875 C7.57343781 24.67100753 4.72257729 27.77761069 0 30 C-5.96891442 30.86645532 -9.4110583 29.84657763 -14.3671875 26.4453125 C-16.5016283 24.55597495 -17.36843288 22.76310615 -18 20 C-16.845 20.33 -15.69 20.66 -14.5 21 C-9.38151393 22.26147086 -4.53746787 23.01498715 0.5 21 C2.52635614 18.29819181 2.43985496 16.24341949 2.43359375 12.9375 C1.86432437 10.39373772 1.09460148 9.54001334 -1 8 C-3.39719432 7.32041397 -3.39719432 7.32041397 -6 7 C-9.72278671 6.46817333 -11.57235427 5.93872904 -14 3 C-9.54951256 -0.44553866 -5.42366655 -0.86242048 0 0 Z " fill="#AE1F1F" transform="translate(135,81)"/>
<path d="M0 0 C4.79093194 1.69091716 8.72822004 4.349647 11 9 C11.82149105 13.76619808 11.39876184 17.80371447 9.875 22.375 C7.00335653 26.39530086 3.64722941 28.45092353 -1 30 C-6.71592544 30.53923825 -9.55802329 29.63434458 -14 26 C-15.875 23.75 -15.875 23.75 -17 22 C-16.67 21.34 -16.34 20.68 -16 20 C-15.01 20.33 -14.02 20.66 -13 21 C-8.80871364 22.17322012 -5.35098987 22.42796622 -1 22 C1.6469872 20.60314994 1.6469872 20.60314994 3 18 C3.63207493 13.41711064 3.63207493 13.41711064 1.8203125 9.34765625 C-1.25927918 7.06770103 -4.78419745 7.09922582 -8.50390625 6.625 C-11 6 -11 6 -13 3 C-8.82462046 -0.13153466 -5.08572022 -0.72081074 0 0 Z " fill="#AD1F1F" transform="translate(385,81)"/>
<path d="M0 0 C4.40811956 1.82039011 6.58065525 4.2695285 8.9375 8.375 C10.50150004 13.71100015 10.96223069 17.18245315 8.3125 22.1875 C5.25968464 25.90038355 2.59200472 28.46933176 -2 30 C-7.73421758 30.54096392 -10.50752204 29.57356201 -15 26 C-16.875 24.375 -16.875 24.375 -18 23 C-18 22.34 -18 21.68 -18 21 C-17.01 21.165 -16.02 21.33 -15 21.5 C-9.58545741 22.26879915 -4.31232033 22.48415158 1 21 C1.27748242 19.58845901 1.52093516 18.17020201 1.75 16.75 C1.88921875 15.96109375 2.0284375 15.1721875 2.171875 14.359375 C2.1993961 11.86877155 2.1993961 11.86877155 0.40625 9.8125 C-2.45453157 7.65762557 -4.76186456 7.00829031 -8.25 6.25 C-9.32765625 6.00765625 -10.4053125 5.7653125 -11.515625 5.515625 C-12.33546875 5.34546875 -13.1553125 5.1753125 -14 5 C-11.16737029 -1.2722515 -6.352098 -0.8272942 0 0 Z " fill="#AD1F1F" transform="translate(261,81)"/>
<path d="M0 0 C0.66 0.33 1.32 0.66 2 1 C-0.64 3.64 -3.28 6.28 -6 9 C-6 6 -6 6 -3.5625 3.375 C-2.716875 2.59125 -1.87125 1.8075 -1 1 C-0.67 0.67 -0.34 0.34 0 0 Z " fill="#6E6E87" transform="translate(238,17)"/>
</svg>
