<svg xmlns="http://www.w3.org/2000/svg" viewBox="0 0 32 32" fill="none">
  <!-- Calendar background -->
  <rect x="2" y="6" width="28" height="24" rx="4" fill="#D52B1E"/>
  <!-- Calendar top bar -->
  <rect x="2" y="6" width="28" height="9" rx="4" fill="#B01E14"/>
  <rect x="2" y="11" width="28" height="4" fill="#B01E14"/>
  <!-- Ring pegs -->
  <rect x="10" y="3" width="3" height="6" rx="1.5" fill="#7a1410"/>
  <rect x="19" y="3" width="3" height="6" rx="1.5" fill="#7a1410"/>
  <!-- Maple leaf in white -->
  <path d="M16 9.5 l1.2 2.4 2.6 0.4-1.9 1.8 0.5 2.6L16 15.4l-2.4 1.3 0.5-2.6-1.9-1.8 2.6-0.4z" fill="white"/>
  <!-- Grid dots representing dates -->
  <rect x="6" y="19" width="3" height="3" rx="0.8" fill="white" opacity="0.9"/>
  <rect x="11" y="19" width="3" height="3" rx="0.8" fill="white" opacity="0.9"/>
  <rect x="16" y="19" width="3" height="3" rx="0.8" fill="white" opacity="0.9"/>
  <rect x="21" y="19" width="3" height="3" rx="0.8" fill="white" opacity="0.9"/>
  <rect x="6" y="24" width="3" height="3" rx="0.8" fill="white" opacity="0.9"/>
  <rect x="11" y="24" width="3" height="3" rx="0.8" fill="white" opacity="0.9"/>
  <rect x="16" y="24" width="3" height="3" rx="0.8" fill="white" opacity="0.5"/>
  <rect x="21" y="24" width="3" height="3" rx="0.8" fill="white" opacity="0.5"/>
</svg>
